<?xml version="1.0" standalone="yes"?>
<svg xmlns="http://www.w3.org/2000/svg" width="518" height="600">
<path style="fill:#010101; stroke:none;" d="M0 0L0 149L70 109.011L187 41.5756L237 12.7191L258 1.60645L278 11.2809L328 40.1505L518 150L518 0L0 0z"/>
<path style="fill:#1c95ac; stroke:none;" d="M256 1.66437C248.037 3.81683 240.13 10.4851 233 14.5725C217.664 23.3649 202.161 31.9047 187 41C145.414 65.9484 102.653 88.9555 61 113.799C46.1545 122.654 30.8719 130.79 16 139.603C11.4712 142.287 1.842 145.6 0.317901 151.104C-1.55522 157.868 0 166.995 0 174L0 222L0 378L0 431C0 436.618 -1.98123 446.989 1.6034 451.671C9.58879 462.102 30.695 469.067 42 475.799C76.6679 496.444 111.76 516.661 147 536.309C174.888 551.857 202.526 568.116 230 584.397C237.177 588.649 252.43 601.466 261 599.103C267.516 597.307 274.142 591.937 280 588.579C293.364 580.917 306.636 573.089 320 565.427C365.05 539.6 410.326 514.077 455 487.603C469.879 478.786 484.895 470.113 500 461.691C504.774 459.03 515.189 455.055 517.397 449.815C519.743 444.245 518 434.986 518 429L518 383L518 221L518 169C518 163.505 519.841 153.844 516.397 149.213C513.446 145.246 507.227 143.021 503 140.694C493.582 135.51 484.33 129.921 475 124.573C441.627 105.44 408.031 86.5116 375 66.7994C346.249 49.6417 316.957 33.3817 288 16.5756C280.218 12.0592 265.436 -0.886292 256 1.66437z"/>
<path style="fill:#0b7f9c; stroke:none;" d="M245 7L246 8L245 7z"/>
<path style="fill:#9cc743; stroke:none;" d="M257 13L258 14L257 13z"/>
<path style="fill:#feffff; stroke:none;" d="M258 13.9236C252.353 14.5184 245.809 20.165 241 22.9892C229.063 30.0002 217.034 36.8736 205 43.7191C159.496 69.6049 114.511 96.4059 69 122.281C54.9411 130.274 40.987 138.458 27 146.576C22.5428 149.162 12.8745 152.54 10.6034 157.39C8.78368 161.276 10 167.79 10 172L10 206L10 325L10 411C10 419.132 6.6783 436.662 11.0278 443.621C17.0607 453.274 38.2474 460.283 48 466.011C79.5255 484.526 111.291 502.649 143 520.85C171.05 536.951 198.941 553.335 227 569.421C234.919 573.961 249.732 586.837 259 586.385C264.752 586.104 271.143 580.482 276 577.719C289.043 570.299 302.108 562.879 315 555.201C359.285 528.826 404.236 503.404 449 477.85C463.042 469.834 476.973 461.62 491 453.579C495.5 450.999 504.319 447.979 506.397 442.895C508.209 438.461 507 431.722 507 427L507 393L507 275L507 189C507 181.038 510.345 163.27 505.972 156.529C500.052 147.403 479.456 140.098 470 134.719C440.249 117.795 410.445 100.846 381 83.3966C351.527 65.9314 321.54 49.3388 292 31.9892C284.207 27.4121 267.095 12.9656 258 13.9236z"/>
<path style="fill:#0b7f9c; stroke:none;" d="M233 14L234 15L233 14z"/>
<path style="fill:#9cc743; stroke:none;" d="M261 14L262 15L261 14M263 15L264 16L263 15M252 16L253 17L252 16z"/>
<path style="fill:#0b7f9c; stroke:none;" d="M287 16L288 17L287 16z"/>
<path style="fill:#9cc743; stroke:none;" d="M250 17L251 18L250 17M266 17L267 18L266 17M268 18L269 19L268 18M270 19L271 20L270 19M245 20L246 21L245 20M243 21L244 22L243 21M273 21L274 22L273 21M275 22L276 23L275 22M240 23L241 24L240 23z"/>
<path style="fill:#0b7f9c; stroke:none;" d="M299 23L300 24L299 23z"/>
<path style="fill:#9cc743; stroke:none;" d="M238 24L239 25L238 24M236 25L237 26L236 25M280 25L281 26L280 25M282 26L283 27L282 26M233 27L234 28L233 27M231 28L232 29L231 28z"/>
<path style="fill:#0b7f9c; stroke:none;" d="M207 29L208 30L207 29z"/>
<path style="fill:#9cc743; stroke:none;" d="M287 29L288 30L287 29M289 30L290 31L289 30M226 31L227 32L226 31z"/>
<path style="fill:#0b7f9c; stroke:none;" d="M313 31L314 32L313 31z"/>
<path style="fill:#9cc743; stroke:none;" d="M224 32L225 33L224 32M292 32L293 33L292 32M294 33L295 34L294 33M221 34L222 35L221 34M296 34L297 35L296 34M219 35L220 36L219 35M217 36L218 37L217 36M299 36L300 37L299 36M301 37L302 38L301 37M214 38L215 39L214 38z"/>
<path style="fill:#0b7f9c; stroke:none;" d="M325 38L326 39L325 38z"/>
<path style="fill:#9cc743; stroke:none;" d="M212 39L213 40L212 39M306 40L307 41L306 40M308 41L309 42L308 41M207 42L208 43L207 42M205 43L206 44L205 43M311 43L312 44L311 43z"/>
<path style="fill:#0b7f9c; stroke:none;" d="M181 44L182 45L181 44z"/>
<path style="fill:#9cc743; stroke:none;" d="M313 44L314 45L313 44M315 45L316 46L315 45M200 46L201 47L200 46M198 47L199 48L198 47M318 47L319 48L318 47M320 48L321 49L320 48M195 49L196 50L195 49M193 50L194 51L193 50M191 51L192 52L191 51M325 51L326 52L325 51M327 52L328 53L327 52M188 53L189 54L188 53z"/>
<path style="fill:#0b7f9c; stroke:none;" d="M351 53L352 54L351 53z"/>
<path style="fill:#9cc743; stroke:none;" d="M186 54L187 55L186 54M332 55L333 56L332 55M334 56L335 57L334 56M181 57L182 58L181 57M179 58L180 59L179 58M337 58L338 59L337 58z"/>
<path style="fill:#0b7f9c; stroke:none;" d="M155 59L156 60L155 59z"/>
<path style="fill:#9cc743; stroke:none;" d="M339 59L340 60L339 59M341 60L342 61L341 60M174 61L175 62L174 61M172 62L173 63L172 62M344 62L345 63L344 62z"/>
<path style="fill:#0b7f9c; stroke:none;" d="M148 63L149 64L148 63z"/>
<path style="fill:#9cc743; stroke:none;" d="M346 63L347 64L346 63M169 64L170 65L169 64M167 65L168 66L167 65M165 66L166 67L165 66M351 66L352 67L351 66M353 67L354 68L353 67M162 68L163 69L162 68z"/>
<path style="fill:#0b7f9c; stroke:none;" d="M377 68L378 69L377 68z"/>
<path style="fill:#9cc743; stroke:none;" d="M160 69L161 70L160 69M358 70L359 71L358 70M360 71L361 72L360 71M155 72L156 73L155 72z"/>
<path style="fill:#0b7f9c; stroke:none;" d="M384 72L385 73L384 72z"/>
<path style="fill:#9cc743; stroke:none;" d="M153 73L154 74L153 73M363 73L364 74L363 73M365 74L366 75L365 74M150 75L151 76L150 75M367 75L368 76L367 75M148 76L149 77L148 76M146 77L147 78L146 77M370 77L371 78L370 77z"/>
<path style="fill:#0b7f9c; stroke:none;" d="M122 78L123 79L122 78z"/>
<path style="fill:#9cc743; stroke:none;" d="M372 78L373 79L372 78M143 79L144 80L143 79M141 80L142 81L141 80M377 81L378 82L377 81M379 82L380 83L379 82M136 83L137 84L136 83M134 84L135 85L134 84M382 84L383 85L382 84M384 85L385 86L384 85M386 86L387 87L386 86M129 87L130 88L129 87z"/>
<path style="fill:#0b7f9c; stroke:none;" d="M410 87L411 88L410 87z"/>
<path style="fill:#9cc743; stroke:none;" d="M127 88L128 89L127 88M389 88L390 89L389 88M391 89L392 90L391 89M124 90L125 91L124 90M122 91L123 92L122 91M120 92L121 93L120 92M396 92L397 93L396 92z"/>
<path style="fill:#0b7f9c; stroke:none;" d="M96 93L97 94L96 93z"/>
<path style="fill:#9cc743; stroke:none;" d="M398 93L399 94L398 93M117 94L118 95L117 94M115 95L116 96L115 95M403 96L404 97L403 96M405 97L406 98L405 97M110 98L111 99L110 98M108 99L109 100L108 99M408 99L409 100L408 99z"/>
<path style="fill:#0b7f9c; stroke:none;" d="M84 100L85 101L84 100z"/>
<path style="fill:#9cc743; stroke:none;" d="M410 100L411 101L410 100M412 101L413 102L412 101M103 102L104 103L103 102z"/>
<path style="fill:#0b7f9c; stroke:none;" d="M436 102L437 103L436 102z"/>
<path style="fill:#9cc743; stroke:none;" d="M101 103L102 104L101 103M415 103L416 104L415 103M417 104L418 105L417 104M98 105L99 106L98 105M96 106L97 107L96 106M94 107L95 108L94 107M422 107L423 108L422 107M424 108L425 109L424 108M91 109L92 110L91 109z"/>
<path style="fill:#0b7f9c; stroke:none;" d="M448 109L449 110L448 109z"/>
<path style="fill:#9cc743; stroke:none;" d="M89 110L90 111L89 110M429 111L430 112L429 111M431 112L432 113L431 112M84 113L85 114L84 113M82 114L83 115L82 114M434 114L435 115L434 114z"/>
<path style="fill:#0b7f9c; stroke:none;" d="M58 115L59 116L58 115z"/>
<path style="fill:#9cc743; stroke:none;" d="M436 115L437 116L436 115M79 116L80 117L79 116M438 116L439 117L438 116M77 117L78 118L77 117M75 118L76 119L75 118M441 118L442 119L441 118M443 119L444 120L443 119M72 120L73 121L72 120M70 121L71 122L70 121M448 122L449 123L448 122M450 123L451 124L450 123M65 124L66 125L65 124z"/>
<path style="fill:#0b7f9c; stroke:none;" d="M474 124L475 125L474 124z"/>
<path style="fill:#9cc743; stroke:none;" d="M63 125L64 126L63 125M453 125L454 126L453 125M455 126L456 127L455 126M457 127L458 128L457 127M58 128L59 129L58 128M56 129L57 130L56 129M460 129L461 130L460 129z"/>
<path style="fill:#0b7f9c; stroke:none;" d="M32 130L33 131L32 130z"/>
<path style="fill:#9cc743; stroke:none;" d="M462 130L463 131L462 130M53 131L54 132L53 131M51 132L52 133L51 132M49 133L50 134L49 133M467 133L468 134L467 133M469 134L470 135L469 134M46 135L47 136L46 135M44 136L45 137L44 136M474 137L475 138L474 137M476 138L477 139L476 138M39 139L40 140L39 139M80 139L80 140L88 140L80 139M114 139L114 140L118 140L114 139M285 139L282 152L282 153C286.292 152.08 286.005 142.614 285 139z"/>
<path style="fill:#1c95ac; stroke:none;" d="M285 153C269.436 150.112 252.967 168.764 268.329 181.146C274.142 185.831 284.222 184.258 291 183C291 170.952 294.206 153.722 290.682 142.229C289.937 139.799 286.948 138.664 285.603 141.333C284.044 144.426 285 149.614 285 153z"/>
<path style="fill:#9cc743; stroke:none;" d="M289.667 139.333L290.333 139.667L289.667 139.333z"/>
<path style="fill:#0b7f9c; stroke:none;" d="M500 139L501 140L500 139z"/>
<path style="fill:#9cc743; stroke:none;" d="M37 140L38 141L37 140z"/>
<path style="fill:#1c95ac; stroke:none;" d="M77 140L77 184C84.0446 184 93.8644 185.731 99.8951 181.297C107.917 175.4 105.722 162.979 96 161C97.6179 159.063 99.6761 157.232 100.826 154.959C108.734 139.322 85.4719 140 77 140z"/>
<path style="fill:#9cc743; stroke:none;" d="M94 140L95 141L94 140z"/>
<path style="fill:#1c95ac; stroke:none;" d="M113 140L113 146L119 146L119 140L113 140z"/>
<path style="fill:#9cc743; stroke:none;" d="M479 140L480 141L479 140M119 141L119 145L120 145L119 141M481 141L482 142L481 141M98 142L99 143L98 142M483 142L484 143L483 142M32 143L33 144L32 143M30 144L31 145L30 144M83 158L84 158L84 145L90 145C81.4571 141.541 83 152.746 83 158M100 144L101 145L100 144M486 144L487 145L486 144z"/>
<path style="fill:#feffff; stroke:none;" d="M84 145L84 158C98.0364 157.873 98.3221 145.041 84 145z"/>
<path style="fill:#9cc743; stroke:none;" d="M92 145L93 146L92 145M362 156L373 146L373 152L374 152L374 145L362 156M488 145L489 146L488 145M27 146L28 147L27 146M101 146L102 147L101 146M113 146L113 147L119 147L113 146z"/>
<path style="fill:#1c95ac; stroke:none;" d="M372 146L362 157L367 157C367 171.36 364.095 183.998 382 184L381 179C369.816 180.43 373 164.255 373 157L381 157L381 152L373 152L372 146z"/>
<path style="fill:#9cc743; stroke:none;" d="M25 147L26 148L25 147M95 148L96 149L95 148M493 148L494 149L493 148M495 149L496 150L495 149M20 150L21 151L20 150M102 150L103 151L102 150M18 151L19 152L18 151M498 151L499 152L498 151M110 152L110 156L111 156L110 152z"/>
<path style="fill:#1c95ac; stroke:none;" d="M111 152L111 157L114 157L114 184L120 184L120 152L111 152z"/>
<path style="fill:#9cc743; stroke:none;" d="M138 152L139 153L138 152z"/>
<path style="fill:#1c95ac; stroke:none;" d="M139 152.534C120.512 156.945 126.959 188.632 146.996 183.581C164.259 179.23 157.634 148.088 139 152.534z"/>
<path style="fill:#9cc743; stroke:none;" d="M146 152L147 153L146 152M173.667 152.333L174.333 152.667L173.667 152.333z"/>
<path style="fill:#1c95ac; stroke:none;" d="M187 183L186 179C174.592 180.41 160.553 168.122 174.108 158.742C177.49 156.402 182.104 157 186 157L186 153C179.916 151.87 173.344 151.397 168.214 155.649C160.257 162.243 161.692 178.086 171.004 182.682C175.709 185.005 182.099 184.167 187 183z"/>
<path style="fill:#9cc743; stroke:none;" d="M183.667 152.333L184.333 152.667L183.667 152.333M202 152L203 153L202 152z"/>
<path style="fill:#1c95ac; stroke:none;" d="M203 152.534C184.512 156.945 190.959 188.632 210.996 183.581C228.259 179.23 221.634 148.088 203 152.534z"/>
<path style="fill:#9cc743; stroke:none;" d="M210 152L211 153L210 152z"/>
<path style="fill:#1c95ac; stroke:none;" d="M229 152L229 184L235 184C235 179.245 233.932 150.322 245.852 158.623C251.778 162.75 249 177.643 249 184L255 184C255 174.573 258.503 144.626 240.025 153.293C238.07 154.21 236.61 155.605 235 157C234.173 153.205 232.829 152.304 229 152z"/>
<path style="fill:#9cc743; stroke:none;" d="M234.333 152.667L234.667 153.333L234.333 152.667M241 152L242 153L241 152M248 152L249 153L248 152M274 152L275 153L274 152z"/>
<path style="fill:#1c95ac; stroke:none;" d="M301 152C301 160.159 298.16 175.449 305.228 181.347C310.867 186.054 320.407 183.833 327 183L327 152L321 152C321 157.835 323.81 174.02 319.397 178.254C315.884 181.624 310.351 178.448 308.457 174.945C305.148 168.824 307 158.769 307 152L301 152z"/>
<path style="fill:#9cc743; stroke:none;" d="M345.667 152.333L346.333 152.667L345.667 152.333z"/>
<path style="fill:#1c95ac; stroke:none;" d="M359 183L358 179C346.592 180.41 332.553 168.122 346.108 158.742C349.49 156.402 354.104 157 358 157L358 153C351.916 151.87 345.344 151.397 340.214 155.649C332.257 162.243 333.692 178.086 343.004 182.682C347.709 185.005 354.099 184.167 359 183z"/>
<path style="fill:#9cc743; stroke:none;" d="M355.667 152.333L356.333 152.667L355.667 152.333M396 152L397 153L396 152z"/>
<path style="fill:#1c95ac; stroke:none;" d="M397 152.534C378.512 156.945 384.959 188.632 404.996 183.581C422.259 179.23 415.634 148.088 397 152.534z"/>
<path style="fill:#9cc743; stroke:none;" d="M404 152L405 153L404 152z"/>
<path style="fill:#1c95ac; stroke:none;" d="M423 152L423 184L429 184C429 174.567 426.282 159.421 439 158L439 152L429 157C428.173 153.205 426.829 152.304 423 152z"/>
<path style="fill:#9cc743; stroke:none;" d="M428.333 152.667L428.667 153.333L428.333 152.667M434 152L435 153L434 152M500 152L501 153L500 152M15 153L16 154L15 153M95 153L96 154L95 153M135 153L136 154L135 153M149 153L150 154L149 153M171 153L172 154L171 153M186.333 153.667L186.667 154.333L186.333 153.667M199 153L200 154L199 153M213 153L214 154L213 153M271 153L272 154L271 153M307 153L307 174L308 174L307 153M320 153L320 179L321 179L320 153M343 153L344 154L343 153M358.333 153.667L358.667 154.333L358.333 153.667M393 153L394 154L393 153M407 153L408 154L407 153M432 153L433 154L432 153M439 153L439 157L440 157L439 153M13 154L14 155L13 154M101 154L102 155L101 154M169 154L170 155L169 154M237 154L238 155L237 154M341 154L342 155L341 154M431 154L432 155L431 154M11 155L12 156L11 155M94 155L95 156L94 155M236 155L237 156L236 155M268 155L269 156L268 155M430 155L431 156L430 155M505 155L506 156L505 155M93 156L94 157L93 156M100 156L101 157L100 156M235 156L236 157L235 156M267 156L268 157L267 156M91 157L92 158L91 157M99 157L100 158L99 157M113 157L113 183L114 183L113 157M139 157L140 158L139 157z"/>
<path style="fill:#feffff; stroke:none;" d="M140.044 157.758C130.753 161.234 133.63 183.562 145.867 178.257C153.906 174.771 150.952 153.676 140.044 157.758z"/>
<path style="fill:#9cc743; stroke:none;" d="M145 157L146 158L145 157M175 157L176 158L175 157M183 157L183 158L186 158L183 157M203 157L204 158L203 157z"/>
<path style="fill:#feffff; stroke:none;" d="M204.044 157.758C194.753 161.234 197.63 183.562 209.867 178.257C217.906 174.771 214.952 153.676 204.044 157.758z"/>
<path style="fill:#9cc743; stroke:none;" d="M209 157L210 158L209 157M240 157L241 158L240 157M266 157L267 158L266 157M275 157L276 158L275 157z"/>
<path style="fill:#feffff; stroke:none;" d="M284 179L284 169C284 166.415 284.288 163.616 283.852 161.059C283.03 156.232 277.483 156.396 274.109 158.742C268.421 162.697 267.899 175.585 275.044 178.397C277.739 179.457 281.16 179 284 179z"/>
<path style="fill:#9cc743; stroke:none;" d="M283 157L284 158L283 157M347 157L348 158L347 157M355 157L355 158L358 158L355 157M373 157L373 177L374 177L373 157M397 157L398 158L397 157z"/>
<path style="fill:#feffff; stroke:none;" d="M398.044 157.758C388.753 161.234 391.63 183.562 403.867 178.257C411.906 174.771 408.952 153.676 398.044 157.758z"/>
<path style="fill:#9cc743; stroke:none;" d="M403 157L404 158L403 157M507 157L507 444L508 444L508 241L508 183L507 157M98 158L99 159L98 158M130 158L131 159L130 158M137 158L138 159L137 158M147 158L148 159L147 158M154 158L155 159L154 158M165 158L166 159L165 158M194 158L195 159L194 158M201 158L202 159L201 158M211 158L212 159L211 158M218 158L219 159L218 158M254 158L255 159L254 158M273 158L274 159L273 158M284 158L284 179L285 179L284 158M337 158L338 159L337 158M388 158L389 159L388 158M395 158L396 159L395 158M405 158L406 159L405 158M412 158L413 159L412 158M434 158L435 159L434 158M96 159L96 161L98 161L96 159M136 159L137 160L136 159M148 159L149 160L148 159M200 159L201 160L200 159M212 159L213 160L212 159M272 159L273 160L272 159M394 159L395 160L394 159M406 159L407 160L406 159M432 159L433 160L432 159M129 160L130 161L129 160M155 160L156 161L155 160M164 160L165 161L164 160M171 160L172 161L171 160M193 160L194 161L193 160M219 160L220 161L219 160M248.333 160.667L248.667 161.333L248.333 160.667M271 160L272 161L271 160M336 160L337 161L336 160M343 160L344 161L343 160M387 160L388 161L387 160M413 160L414 161L413 160M431 160L432 161L431 160M99 161L100 162L99 161M135 161L136 162L135 161M149 161L150 162L149 161M199 161L200 162L199 161M213 161L214 162L213 161M236 161L237 162L236 161M393 161L394 162L393 161M407 161L408 162L407 161M170 162L171 163L170 162M270 162L271 163L270 162M342 162L343 163L342 162M430 162L431 163L430 162M83 163C83 172.116 80.7586 179.96 92 180L92 179L84 179L83 163z"/>
<path style="fill:#feffff; stroke:none;" d="M84 163L84 179C87.4074 179 91.7927 179.632 94.8519 177.821C106.659 170.83 90.6245 163.018 84 163z"/>
<path style="fill:#9cc743; stroke:none;" d="M92 163L93 164L92 163M128 163L129 164L128 163M156 163L157 164L156 163M163.333 163.667L163.667 164.333L163.333 163.667M192 163L193 164L192 163M220 163L221 164L220 163M263.333 163.667L263.667 164.333L263.333 163.667M335.333 163.667L335.667 164.333L335.333 163.667M386 163L387 164L386 163M414 163L415 164L414 163M134 164L134 172L135 172L134 164M198 164L198 172L199 172L198 164M235 164L235 183L236 183L235 164M255 164L255 183L256 183L255 164M392 164L392 172L393 172L392 164M96 165L97 166L96 165M103 165L104 166L103 165M150 165L150 172L151 172L150 165M169 165L169 172L170 172L169 165M214 165L214 172L215 172L214 165M269 165L269 172L270 172L269 165M341 165L341 172L342 172L341 165M408 165L408 172L409 172L408 165M429 165L429 183L430 183L429 165M104 167L105 168L104 167M98 169L98 174L99 174L98 169M128.333 172.667L128.667 173.333L128.333 172.667M156.333 172.667L156.667 173.333L156.333 172.667M163.333 172.667L163.667 173.333L163.333 172.667M192.333 172.667L192.667 173.333L192.333 172.667M220.333 172.667L220.667 173.333L220.333 172.667M335.333 172.667L335.667 173.333L335.333 172.667M386.333 172.667L386.667 173.333L386.333 172.667M414.333 172.667L414.667 173.333L414.333 172.667M263 173L264 174L263 173M149 174L150 175L149 174M170 174L171 175L170 174M213 174L214 175L213 174M270 174L271 175L270 174M301.333 174.667L301.667 175.333L301.333 174.667M342 174L343 175L342 174M407 174L408 175L407 174M104 175L105 176L104 175M129 176L130 177L129 176M155 176L156 177L155 176M164 176L165 177L164 176M171 176L172 177L171 176M193 176L194 177L193 176M219 176L220 177L219 176M264 176L265 177L264 176M271 176L272 177L271 176M336 176L337 177L336 176M343 176L344 177L343 176M387 176L388 177L387 176M413 176L414 177L413 176M103 177L104 178L103 177M172 177L173 178L172 177M272 177L273 178L272 177M309 177L310 178L309 177M344 177L345 178L344 177M94 178L95 179L94 178M138 178L139 179L138 178M146 178L147 179L146 178M174 178L175 179L174 178M202 178L203 179L202 178M210 178L211 179L210 178M265 178L266 179L265 178M310 178L311 179L310 178M346 178L347 179L346 178M367 178L368 179L367 178M374 178L375 179L374 178M396 178L397 179L396 178M404 178L405 179L404 178M131 179L132 180L131 179M140 179L140 180L145 180L140 179M153 179L154 180L153 179M166 179L167 180L166 179M177 179L177 180L183 180L177 179M195 179L196 180L195 179M204 179L204 180L209 180L204 179M217 179L218 180L217 179M266 179L267 180L266 179M277 179L277 180L283 180L277 179M313 179L313 180L319 180L313 179M338 179L339 180L338 179M349 179L349 180L355 180L349 179M376 179L376 180L380 180L376 179M389 179L390 180L389 179M398 179L398 180L403 180L398 179M411 179L412 180L411 179M167 180L168 181L167 180M186 180L187 181L186 180M339 180L340 181L339 180M358 180L359 181L358 180M381 180L382 181L381 180M133 181L134 182L133 181M151 181L152 182L151 181M168 181L169 182L168 181M197 181L198 182L197 181M215 181L216 182L215 181M268 181L269 182L268 181M340 181L341 182L340 181M391 181L392 182L391 181M409 181L410 182L409 181M306 182L307 183L306 182M95 183L96 184L95 183M136 183L137 184L136 183M148 183L149 184L148 183M172 183L173 184L172 183M185 183L186 184L185 183M200 183L201 184L200 183M212 183L213 184L212 183M272 183L273 184L272 183M288.667 183.333L289.333 183.667L288.667 183.333M308 183L309 184L308 183M323.667 183.333L324.333 183.667L323.667 183.333M344 183L345 184L344 183M357 183L358 184L357 183M371 183L372 184L371 183M394 183L395 184L394 183M406 183L407 184L406 183M82 184L82 185L91 185L82 184M140 184L140 185L145 185L140 184M176 184L176 185L182 185L176 184M204 184L204 185L209 185L204 184M276 184L276 185L283 185L276 184M312 184L312 185L319 185L312 184M348 184L348 185L354 185L348 184M374 184L374 185L380 185L374 184M398 184L398 185L403 185L398 184M357.043 218.668C347.025 221.668 352.343 236.935 361.981 233.392C370.953 230.094 366.406 215.864 357.043 218.668M450 219L450 220L453 220L450 219M448 220L446 223L448 220z"/>
<path style="fill:#1c95ac; stroke:none;" d="M449.148 221.032C443.169 224.488 449.179 232.68 454.566 228.971C459.595 225.51 454.471 217.957 449.148 221.032z"/>
<path style="fill:#9cc743; stroke:none;" d="M379.019 222.785C369.449 226.014 374.714 240.443 383.956 236.951C392.803 233.608 387.9 219.789 379.019 222.785M456 222L457 223L456 222M457.333 224.667L457.667 225.333L457.333 224.667M287 225L288 226L287 225z"/>
<path style="fill:#1c95ac; stroke:none;" d="M288.019 225.681C279.241 227.283 282.365 240.624 290.981 238.547C299.022 236.608 295.903 224.243 288.019 225.681z"/>
<path style="fill:#9cc743; stroke:none;" d="M291 225L292 226L291 225M293 226L294 227L293 226M332.044 227.028C321.91 232.429 329.45 248.824 339.985 243.678C351.463 238.072 343.501 220.922 332.044 227.028M266 227L266 228L271 228L266 227M294 227L295 228L294 227M446 227L447 228L446 227M456 227L457 228L456 227M264 228L263 230L264 228z"/>
<path style="fill:#1c95ac; stroke:none;" d="M265.109 228.858C256.54 232.744 263.474 245.724 271.892 242.254C281.188 238.422 274.435 224.629 265.109 228.858z"/>
<path style="fill:#9cc743; stroke:none;" d="M273 228L274 229L273 228M295 228L296 229L295 228M447 228L448 229L447 228M282.333 229.667L282.667 230.333L282.333 229.667M455 229L456 230L455 229M275 230L276 231L275 230M450 230L450 231L454 231L450 230M296 231L296 234L297 234L296 231M276 233L277 234L276 233M282 234L283 235L282 234M395.228 234.758C388.972 237.457 393.033 248.092 399.853 245.242C406.1 242.632 401.949 231.857 395.228 234.758M437 234L438 235L437 234z"/>
<path style="fill:#1c95ac; stroke:none;" d="M438.055 234.743C428.939 238.445 434.558 252.861 443.981 249.254C454.039 245.404 447.914 230.74 438.055 234.743z"/>
<path style="fill:#9cc743; stroke:none;" d="M445 234L446 235L445 234M446 235L447 236L446 235M276.333 236.667L276.667 237.333L276.333 236.667M283 236L284 237L283 236M303 236L304 237L303 236z"/>
<path style="fill:#1c95ac; stroke:none;" d="M304.143 236.851C299.157 238.487 301.945 246.015 306.857 244.338C311.821 242.643 309.109 235.222 304.143 236.851z"/>
<path style="fill:#9cc743; stroke:none;" d="M307 236L308 237L307 236M284 237L285 238L284 237M448 237L449 238L448 237M261 238L262 239L261 238M292 238L293 239L292 238M275 239L276 240L275 239M300 239L300 242L301 242L300 239M433 239L434 240L433 239M449.333 239.667L449.667 240.333L449.333 239.667M249 240L249 241L253 241L249 240M262 240L263 241L262 240M246 241L247 242L246 241z"/>
<path style="fill:#1c95ac; stroke:none;" d="M247.044 241.742C237.065 245.787 243.88 262.124 253.906 257.976C264.598 253.553 257.865 237.356 247.044 241.742z"/>
<path style="fill:#9cc743; stroke:none;" d="M256 242L257 243L256 242M265 242L266 243L265 242M272 242L273 243L272 242M243 243L244 244L243 243M257 243L258 244L257 243M449.333 243.667L449.667 244.333L449.333 243.667M258 244L259 245L258 244M302 244L303 245L302 244M433 244L434 245L433 244M242 245L243 246L242 245M314.015 245.742C301.38 250.725 309.792 271.351 322.996 266.258C336.825 260.924 327.841 240.291 314.015 245.742M411.069 245.971C406.319 247.14 408.165 254.45 412.786 253.11C417.013 251.883 415.526 244.874 411.069 245.971M448 246L449 247L448 246M241 247L241 252L242 252L241 247M259 247L260 248L259 247M447 247L448 248L447 247M446 248L447 249L446 248M437 249L438 250L437 249M444 249L445 250L444 249M440 250L440 251L443 251L440 250M259.333 251.667L259.667 252.333L259.333 251.667M242 253L243 254L242 253M428.667 253.333L429.333 253.667L428.667 253.333M258 254L259 255L258 254M425 254L426 255L425 254z"/>
<path style="fill:#1c95ac; stroke:none;" d="M426.015 254.707C413.439 258.931 420.509 278.156 432.985 273.258C444.37 268.787 437.855 250.73 426.015 254.707z"/>
<path style="fill:#9cc743; stroke:none;" d="M432 254L433 255L432 254M243 255L244 256L243 255M257 255L258 256L257 255M423 255L424 256L423 255M244 256L245 257L244 256M422 256L423 257L422 256M245 257L246 258L245 257M255 257L256 258L255 257M437 257L438 258L437 257M247.667 258.333L248.333 258.667L247.667 258.333M253 258L254 259L253 258M420 258L421 259L420 258M438 259L439 260L438 259M419 260L420 261L419 260M339.667 262.333L340.333 262.667L339.667 262.333M439 262L439 267L440 267L439 262z"/>
<path style="fill:#1c95ac; stroke:none;" d="M337.757 264.042C334.853 266.33 338.697 270.024 341.382 267.958C344.244 265.754 340.38 261.976 337.757 264.042z"/>
<path style="fill:#9cc743; stroke:none;" d="M336 264L337 265L336 264M343.333 265.667L343.667 266.333L343.333 265.667M296.005 266.746C284.504 271.065 291.622 288.862 302.981 284.141C314.001 279.562 306.981 262.625 296.005 266.746M419.333 267.667L419.667 268.333L419.333 267.667M342 268L343 269L342 268M438 268L439 269L438 268M338 269L338 270L341 270L338 269M420 269L421 270L420 269M437 270L438 271L437 270M242 271L242 335L243 335C243 314.86 239.335 290.596 244 271L242 271M436 271L437 272L436 271z"/>
<path style="fill:#1c95ac; stroke:none;" d="M243 272L243 441C224.301 437.834 205.574 441.145 194.761 459C179.758 483.773 198.642 508.881 226 496.204C250.368 484.914 250 464.238 250 441L250 328L250 289C250 281.63 250.54 275.558 243 272z"/>
<path style="fill:#9cc743; stroke:none;" d="M435 272L436 273L435 272M246 273L247 274L246 273M351 273L350 275L351 273z"/>
<path style="fill:#1c95ac; stroke:none;" d="M352.143 274.006C347.527 275.401 349.027 283.229 353.961 282.168C359.401 280.999 357.467 272.398 352.143 274.006z"/>
<path style="fill:#9cc743; stroke:none;" d="M355 273L356 274L355 273M424 273L425 274L424 273M433 273L434 274L433 273M443.333 274.047C439.402 276.561 443.643 282.481 447.427 279.953C451.561 277.191 447.36 271.472 443.333 274.047M247 274L248 275L247 274M275.044 274.786C266.406 277.731 271.312 290.891 279.811 287.254C287.257 284.067 282.683 272.182 275.044 274.786M356 274L357 275L356 274M426 274L426 275L432 275L426 274M248 275L249 276L248 275M357 275L358 276L357 275M249 276L250 277L249 276M457.229 277.032C450.792 280.89 457.906 290.31 463.682 286.102C469.249 282.046 463.119 273.501 457.229 277.032M250 277L250 467L251 467L251 333L251 295L250 277M348.333 277.667L348.667 278.333L348.333 277.667M407.667 277.333L408.333 277.667L407.667 277.333z"/>
<path style="fill:#1c95ac; stroke:none;" d="M409.004 277.616C398.589 280.039 401.441 296.373 411.985 294.562C422.729 292.716 419.886 275.083 409.004 277.616z"/>
<path style="fill:#9cc743; stroke:none;" d="M413 277L414 278L413 277M415 278L416 279L415 278M404 279L405 280L404 279M357 280L358 281L357 280M403 280L404 281L403 280M417 280L418 281L417 280M356 281L357 282L356 281z"/>
<path style="fill:#1c95ac; stroke:none;" d="M367.148 282.047C361.28 285.23 365.705 295.288 371.852 291.953C377.72 288.77 373.295 278.712 367.148 282.047z"/>
<path style="fill:#9cc743; stroke:none;" d="M372 281L373 282L372 281M418 281L419 282L418 281M351 282L352 283L351 282M355 282L356 283L355 282M365 282L366 283L365 282M373 282L374 283L373 282M402 282L403 283L402 282M364 283L365 284L364 283M374 283L375 284L374 283M419 284L419 288L420 288L419 284M363 285L363 289L364 289L363 285M375 285L375 289L376 289L375 285M387 285L387 286L390 286L387 285M385 286L386 287L385 286z"/>
<path style="fill:#1c95ac; stroke:none;" d="M386.044 286.746C376.811 290.373 383.026 304.039 391.891 300.138C400.032 296.556 394.804 283.305 386.044 286.746z"/>
<path style="fill:#9cc743; stroke:none;" d="M392 286L393 287L392 286M383 287L384 288L383 287M395 289L396 290L395 289M402 289L403 290L402 289M374 290L375 291L374 290M381 290L382 291L381 290M418 290L419 291L418 290M365 291L366 292L365 291M373 291L374 292L373 291M396 291L396 295L397 295L396 291M403 291L404 292L403 291M417 291L418 292L417 291M372 292L373 293L372 292M404 292L405 293L404 292M405 293L406 294L405 293M415 293L416 294L415 293M407 294L408 295L407 294M413 294L414 295L413 294M381 296L382 297L381 296M393 299L394 300L393 299M385 300L386 301L385 300M392 300L393 301L392 300M242 436L242 441L243 441L242 436M222.667 439.333L223.333 439.667L222.667 439.333M237 439L238 440L237 439M219 440L220 441L219 440M239.667 440.333L240.333 440.667L239.667 440.333M216 441L217 442L216 441M214 442L215 443L214 442M211 443L212 444L211 443M210 444L211 445L210 444M506 444L507 445L506 444M12 445L13 446L12 445M208 445L209 446L208 445M14 446L15 447L14 446M205 447L206 448L205 447M501 447L502 448L501 447M17 448L18 449L17 448M204 448L205 449L204 448M499 448L500 449L499 448M19 449L20 450L19 449M496 450L497 451L496 450z"/>
<path style="fill:#010101; stroke:none;" d="M0 451L0 600L257 600L257 599L174 551.424L0 451z"/>
<path style="fill:#9cc743; stroke:none;" d="M494 451L495 452L494 451z"/>
<path style="fill:#010101; stroke:none;" d="M517 451L359 542.424L294 580L260 599L260 600L518 600L518 496C518 483.271 521.907 462.694 517 451z"/>
<path style="fill:#9cc743; stroke:none;" d="M24 452L25 453L24 452M492 452L493 453L492 452M26 453L27 454L26 453M489 454L490 455L489 454M487 455L488 456L487 455M31 456L32 457L31 456M196 456L197 457L196 456M485 456L486 457L485 456M33 457L34 458L33 457M195 457L196 458L195 457z"/>
<path style="fill:#0b7f9c; stroke:none;" d="M506 457L507 458L506 457M12 458L13 459L12 458z"/>
<path style="fill:#9cc743; stroke:none;" d="M482 458L483 459L482 458M194 459L195 460L194 459M480 459L481 460L480 459M38 460L39 461L38 460M40 461L41 462L40 461M475 462L476 463L475 462M43 463L44 464L43 463M192 463L193 464L192 463M473 463L474 464L473 463M45 464L46 465L45 464z"/>
<path style="fill:#0b7f9c; stroke:none;" d="M494 464L495 465L494 464z"/>
<path style="fill:#9cc743; stroke:none;" d="M47 465L48 466L47 465M191 465L192 466L191 465z"/>
<path style="fill:#0b7f9c; stroke:none;" d="M26 466L27 467L26 466z"/>
<path style="fill:#9cc743; stroke:none;" d="M468 466L469 467L468 466M50 467L51 468L50 467M466 467L467 468L466 467M52 468L53 469L52 468M190 468L191 469L190 468M249.333 469.667L249.667 470.333L249.333 469.667M463 469L464 470L463 469M461 470L462 471L461 470M57 471L58 472L57 471M459 471L460 472L459 471M59 472L60 473L59 472M189 472L189 483L190 483L189 472z"/>
<path style="fill:#0b7f9c; stroke:none;" d="M38 473L39 474L38 473z"/>
<path style="fill:#9cc743; stroke:none;" d="M248 473L249 474L248 473M456 473L457 474L456 473M454 474L455 475L454 474M64 475L65 476L64 475M247 475L248 476L247 475M66 476L67 477L66 476M246 477L247 478L246 477M449 477L450 478L449 477M69 478L70 479L69 478M447 478L448 479L447 478M71 479L72 480L71 479M245 479L246 480L245 479z"/>
<path style="fill:#0b7f9c; stroke:none;" d="M468 479L469 480L468 479z"/>
<path style="fill:#9cc743; stroke:none;" d="M73 480L74 481L73 480M444 480L445 481L444 480M442 481L443 482L442 481M76 482L77 483L76 482M440 482L441 483L440 482M78 483L79 484L78 483M242 483L243 484L242 483M241 484L242 485L241 484M437 484L438 485L437 484M435 485L436 486L435 485M83 486L84 487L83 486M190.333 486.667L190.667 487.333L190.333 486.667M239 486L240 487L239 486M85 487L86 488L85 487z"/>
<path style="fill:#0b7f9c; stroke:none;" d="M64 488L65 489L64 488z"/>
<path style="fill:#9cc743; stroke:none;" d="M237 488L238 489L237 488M430 488L431 489L430 488M88 489L89 490L88 489M236 489L237 490L236 489M428 489L429 490L428 489M90 490L91 491L90 490M191 490L192 491L191 490M92 491L93 492L92 491M232 492L233 493L232 492M423 492L424 493L423 492M95 493L96 494L95 493M193 493L194 494L193 493M421 493L422 494L421 493M97 494L98 495L97 494M194 494L195 495L194 494z"/>
<path style="fill:#0b7f9c; stroke:none;" d="M442 494L443 495L442 494z"/>
<path style="fill:#9cc743; stroke:none;" d="M227 495L228 496L227 495M418 495L419 496L418 495M196 496L197 497L196 496M225 496L226 497L225 496M416 496L417 497L416 496M102 497L103 498L102 497M197 497L198 498L197 497M223 497L224 498L223 497M414 497L415 498L414 497M104 498L105 499L104 498M200 498L201 499L200 498M219.667 498.333L220.333 498.667L219.667 498.333M203.667 499.333L204.333 499.667L203.667 499.333M215.667 499.333L216.333 499.667L215.667 499.333M411 499L412 500L411 499M409 500L410 501L409 500M109 501L110 502L109 501M111 502L112 503L111 502z"/>
<path style="fill:#0b7f9c; stroke:none;" d="M90 503L91 504L90 503z"/>
<path style="fill:#9cc743; stroke:none;" d="M404 503L405 504L404 503M114 504L115 505L114 504M402 504L403 505L402 504M116 505L117 506L116 505z"/>
<path style="fill:#0b7f9c; stroke:none;" d="M423 505L424 506L423 505z"/>
<path style="fill:#9cc743; stroke:none;" d="M118 506L119 507L118 506M397 507L398 508L397 507M121 508L122 509L121 508M395 508L396 509L395 508M123 509L124 510L123 509z"/>
<path style="fill:#0b7f9c; stroke:none;" d="M416 509L417 510L416 509z"/>
<path style="fill:#9cc743; stroke:none;" d="M392 510L393 511L392 510M390 511L391 512L390 511M128 512L129 513L128 512M388 512L389 513L388 512M130 513L131 514L130 513z"/>
<path style="fill:#0b7f9c; stroke:none;" d="M409 513L410 514L409 513M109 514L110 515L109 514z"/>
<path style="fill:#9cc743; stroke:none;" d="M385 514L386 515L385 514M133 515L134 516L133 515M383 515L384 516L383 515M135 516L136 517L135 516M137 517L138 518L137 517z"/>
<path style="fill:#0b7f9c; stroke:none;" d="M116 518L117 519L116 518z"/>
<path style="fill:#9cc743; stroke:none;" d="M378 518L379 519L378 518M140 519L141 520L140 519M376 519L377 520L376 519M142 520L143 521L142 520z"/>
<path style="fill:#0b7f9c; stroke:none;" d="M397 520L398 521L397 520z"/>
<path style="fill:#9cc743; stroke:none;" d="M144 521L145 522L144 521M373 521L374 522L373 521M371 522L372 523L371 522M147 523L148 524L147 523M369 523L370 524L369 523M149 524L150 525L149 524M366 525L367 526L366 525M364 526L365 527L364 526M154 527L155 528L154 527M156 528L157 529L156 528z"/>
<path style="fill:#0b7f9c; stroke:none;" d="M383 528L384 529L383 528M135 529L136 530L135 529z"/>
<path style="fill:#9cc743; stroke:none;" d="M359 529L360 530L359 529M159 530L160 531L159 530M357 530L358 531L357 530M161 531L162 532L161 531M163 532L164 533L163 532M352 533L353 534L352 533M166 534L167 535L166 534M350 534L351 535L350 534M168 535L169 536L168 535z"/>
<path style="fill:#0b7f9c; stroke:none;" d="M371 535L372 536L371 535z"/>
<path style="fill:#9cc743; stroke:none;" d="M347 536L348 537L347 536z"/>
<path style="fill:#0b7f9c; stroke:none;" d="M149 537L150 538L149 537z"/>
<path style="fill:#9cc743; stroke:none;" d="M345 537L346 538L345 537M173 538L174 539L173 538M343 538L344 539L343 538M175 539L176 540L175 539M340 540L341 541L340 540M338 541L339 542L338 541M180 542L181 543L180 542M182 543L183 544L182 543z"/>
<path style="fill:#0b7f9c; stroke:none;" d="M161 544L162 545L161 544z"/>
<path style="fill:#9cc743; stroke:none;" d="M333 544L334 545L333 544M185 545L186 546L185 545M331 545L332 546L331 545M187 546L188 547L187 546M189 547L190 548L189 547M326 548L327 549L326 548M192 549L193 550L192 549M324 549L325 550L324 549M194 550L195 551L194 550z"/>
<path style="fill:#0b7f9c; stroke:none;" d="M345 550L346 551L345 550z"/>
<path style="fill:#9cc743; stroke:none;" d="M321 551L322 552L321 551M319 552L320 553L319 552M199 553L200 554L199 553M317 553L318 554L317 553M201 554L202 555L201 554M314 555L315 556L314 555M204 556L205 557L204 556M312 556L313 557L312 556M206 557L207 558L206 557M208 558L209 559L208 558z"/>
<path style="fill:#0b7f9c; stroke:none;" d="M187 559L188 560L187 559z"/>
<path style="fill:#9cc743; stroke:none;" d="M307 559L308 560L307 559M211 560L212 561L211 560M305 560L306 561L305 560M213 561L214 562L213 561M215 562L216 563L215 562M302 562L303 563L302 562M300 563L301 564L300 563M218 564L219 565L218 564M298 564L299 565L298 564M220 565L221 566L220 565z"/>
<path style="fill:#0b7f9c; stroke:none;" d="M319 565L320 566L319 565z"/>
<path style="fill:#9cc743; stroke:none;" d="M295 566L296 567L295 566M293 567L294 568L293 567M225 568L226 569L225 568M227 569L228 570L227 569M288 570L289 571L288 570M230 571L231 572L230 571M286 571L287 572L286 571M232 572L233 573L232 572M234 573L235 574L234 573z"/>
<path style="fill:#0b7f9c; stroke:none;" d="M213 574L214 575L213 574z"/>
<path style="fill:#9cc743; stroke:none;" d="M281 574L282 575L281 574M237 575L238 576L237 575M279 575L280 576L279 575M239 576L240 577L239 576z"/>
<path style="fill:#0b7f9c; stroke:none;" d="M300 576L301 577L300 576z"/>
<path style="fill:#9cc743; stroke:none;" d="M276 577L277 578L276 577M274 578L275 579L274 578M244 579L245 580L244 579M272 579L273 580L272 579M246 580L247 581L246 580z"/>
<path style="fill:#0b7f9c; stroke:none;" d="M293 580L294 581L293 580z"/>
<path style="fill:#9cc743; stroke:none;" d="M269 581L270 582L269 581M267 582L268 583L267 582M251 583L252 584L251 583M253 584L254 585L253 584M262 585L263 586L262 585M256 586L257 587L256 586M260 586L261 587L260 586M258 587L259 588L258 587z"/>
<path style="fill:#0b7f9c; stroke:none;" d="M281 587L282 588L281 587M274 591L275 592L274 591M267 595L268 596L267 595z"/>
</svg>
