<svg height="1600pt" preserveAspectRatio="xMidYMid meet" viewBox="0 0 1600 1600" width="1600pt" xmlns="http://www.w3.org/2000/svg"><path d="m7820 14985c-36-8-90-24-120-36-61-25-5662-3159-5734-3209-134-92-237-240-283-410-17-62-18-228-18-3320v-3255l23-80c13-43 39-110 59-148 48-91 165-214 256-271 128-79 5620-3158 5692-3191 188-87 422-87 610 0 72 33 5564 3112 5692 3191 91 57 208 180 256 271 20 38 46 105 59 148l23 80v3240c0 3149-1 3242-19 3315-23 90-54 164-95 223-52 76-168 193-233 235-68 44-5526 3092-5647 3153-142 73-355 99-521 64zm655-2340c1308-141 2473-800 3255-1840 87-116 248-354 278-411 11-20-37-49-997-598-554-317-1012-576-1017-576s-27 28-49 62c-330 513-902 893-1515 1008-922 172-1846-218-2369-1000-574-857-510-1995 157-2790 362-432 873-718 1442-807 161-25 519-25 680 0 665 105 1234 468 1608 1029l65 98 87-48c48-26 508-279 1023-562l936-515-31-55c-17-30-73-118-123-195-1286-1962-3814-2665-5930-1651-1357 651-2338 1957-2580 3436-48 296-59 433-59 770 0 430 33 715 129 1108 302 1240 1108 2308 2225 2949 611 351 1338 565 2060 607 133 8 590-4 725-19zm2525-3975v-330l333-2 332-3v-335-335l-332-3-333-2v-330-330h-335-335v330 330l-332 2-333 3v335 335l333 3 332 2v330 330h335 335zm2340 0v-330h330 330v-340-340h-330-330v-330-330h-340-340v330 330h-330-330v340 340h330 330v330 330h340 340z" transform="matrix(.1 0 0 -.1 0 1600)"/></svg>