<?xml version="1.0" standalone="no"?>
<!DOCTYPE svg PUBLIC "-//W3C//DTD SVG 20010904//EN"
 "http://www.w3.org/TR/2001/REC-SVG-20010904/DTD/svg10.dtd">
<svg version="1.0" xmlns="http://www.w3.org/2000/svg"
 width="487.000000pt" height="512.000000pt" viewBox="0 0 487.000000 512.000000"
 preserveAspectRatio="xMidYMid meet">

<g transform="translate(0.000000,512.000000) scale(0.100000,-0.100000)"
fill="#000000" stroke="none">
<path d="M2305 4817 c-38 -19 -160 -85 -270 -147 -110 -62 -315 -177 -455
-255 -140 -78 -367 -205 -505 -282 -137 -77 -347 -195 -465 -261 -262 -146
-287 -164 -319 -227 l-26 -49 0 -1136 0 -1135 22 -42 c21 -39 73 -87 137 -128
40 -24 307 -174 546 -305 203 -111 786 -437 995 -555 413 -235 382 -220 465
-220 l76 0 149 84 c460 258 1212 678 1485 828 256 141 359 204 392 237 72 75
68 3 65 1256 -2 1030 -3 1128 -19 1155 -37 68 -95 109 -388 272 -162 91 -518
289 -790 440 -272 152 -562 314 -645 361 -220 125 -237 133 -313 138 -61 5
-73 3 -137 -29z m395 -777 c433 -73 798 -306 1057 -673 30 -43 53 -84 50 -91
-7 -16 -190 -127 -481 -291 l-210 -117 -30 38 c-107 136 -233 235 -360 285
-343 133 -712 28 -932 -264 -62 -83 -99 -159 -130 -268 -24 -84 -26 -102 -21
-223 4 -95 11 -150 27 -201 84 -266 280 -457 555 -541 46 -13 95 -18 205 -18
125 -1 155 2 220 22 177 56 320 158 431 308 l40 54 42 -21 c23 -12 96 -52 162
-89 141 -79 334 -184 423 -230 34 -18 67 -39 72 -45 25 -30 -208 -324 -348
-442 -151 -126 -359 -243 -527 -297 -632 -203 -1308 -19 -1727 471 -287 337
-415 722 -387 1170 31 494 298 948 719 1225 205 135 382 201 670 251 14 2 102
5 195 6 128 1 199 -4 285 -19z m770 -1345 l5 -110 110 -5 110 -5 0 -117 c0
-89 -3 -119 -13 -123 -8 -3 -58 -5 -113 -5 l-99 0 0 -110 0 -110 -119 0 c-99
0 -120 3 -125 16 -3 9 -6 57 -6 108 l0 93 -77 6 c-43 4 -89 4 -102 0 -17 -4
-28 -1 -37 12 -15 20 -18 110 -8 189 l7 46 108 0 109 0 0 108 c0 60 3 112 7
116 4 3 59 5 122 4 l116 -3 5 -110z m798 -2 l3 -112 112 -3 112 -3 3 -100 c4
-154 12 -145 -118 -145 l-110 0 0 -110 0 -111 -122 3 -123 3 -3 107 -3 107
-107 3 -107 3 -3 122 -3 122 108 3 108 3 3 100 c1 55 4 106 7 113 3 9 34 12
122 10 l118 -3 3 -112z"/>
</g>
</svg>
