<svg id="svg" version="1.1" xmlns="http://www.w3.org/2000/svg" xmlns:xlink="http://www.w3.org/1999/xlink" width="400" height="421.0526315789474" viewBox="0, 0, 400,421.0526315789474"><g id="svgg"><path id="path0" d="M195.829 21.905 C 195.692 22.042,194.170 22.469,192.192 22.926 C 191.713 23.036,188.402 24.751,186.400 25.925 C 185.630 26.376,184.113 27.227,183.029 27.814 C 179.894 29.513,179.412 29.788,179.200 30.000 C 179.090 30.110,178.100 30.646,177.000 31.190 C 175.900 31.735,174.910 32.289,174.800 32.422 C 174.690 32.554,174.060 32.929,173.400 33.255 C 171.258 34.311,165.826 37.301,164.800 37.989 C 164.250 38.358,162.990 39.071,162.000 39.574 C 161.010 40.078,159.210 41.033,158.000 41.697 C 156.790 42.361,155.260 43.196,154.600 43.552 C 153.940 43.909,153.310 44.300,153.200 44.422 C 153.090 44.544,152.280 45.017,151.400 45.473 C 148.470 46.992,147.003 47.798,146.800 48.000 C 146.690 48.110,145.700 48.647,144.600 49.194 C 143.500 49.741,142.362 50.416,142.071 50.694 C 141.781 50.972,141.301 51.200,141.005 51.200 C 140.709 51.200,140.407 51.335,140.333 51.500 C 140.260 51.665,139.300 52.250,138.200 52.800 C 137.100 53.350,136.110 53.890,136.000 54.000 C 135.890 54.110,134.990 54.630,134.000 55.156 C 132.041 56.196,129.008 57.830,126.800 59.036 C 126.030 59.456,125.310 59.890,125.200 60.000 C 125.002 60.197,124.558 60.443,119.800 62.993 C 115.546 65.272,114.604 65.796,114.399 66.000 C 114.288 66.110,113.388 66.638,112.399 67.173 C 111.409 67.708,108.723 69.193,106.430 70.473 C 104.136 71.753,102.126 72.800,101.963 72.800 C 101.800 72.800,101.607 72.935,101.533 73.100 C 101.460 73.265,100.770 73.737,100.000 74.149 C 95.798 76.398,93.250 77.816,92.000 78.600 C 90.540 79.517,84.857 82.636,83.303 83.374 C 82.810 83.608,82.405 83.935,82.403 84.100 C 82.401 84.265,82.165 84.400,81.878 84.400 C 81.591 84.400,80.513 84.935,79.483 85.588 C 77.660 86.744,73.426 89.113,71.000 90.333 C 70.340 90.666,69.710 91.041,69.600 91.169 C 69.391 91.411,65.650 93.462,64.103 94.182 C 63.610 94.412,63.205 94.735,63.203 94.900 C 63.201 95.065,63.028 95.200,62.818 95.200 C 62.607 95.200,61.482 95.764,60.318 96.454 C 58.513 97.523,54.471 99.759,52.400 100.834 C 52.070 101.005,50.245 102.058,48.344 103.173 C 46.444 104.288,44.689 105.200,44.444 105.200 C 44.200 105.200,44.000 105.380,44.000 105.600 C 44.000 105.820,43.828 106.000,43.618 106.000 C 43.407 106.000,42.317 106.541,41.195 107.203 C 38.403 108.849,34.073 111.216,32.500 111.955 C 31.785 112.292,31.200 112.709,31.200 112.883 C 31.200 113.058,30.955 113.200,30.657 113.200 C 28.258 113.200,22.749 121.038,21.940 125.600 C 21.317 129.112,20.971 310.331,21.586 310.946 C 21.814 311.174,22.000 311.612,22.000 311.920 C 22.000 312.514,22.729 314.332,24.065 317.070 C 25.228 319.454,30.232 324.400,31.481 324.400 C 31.767 324.400,32.000 324.568,32.000 324.773 C 32.000 324.978,32.388 325.269,32.863 325.420 C 33.338 325.571,35.026 326.483,36.614 327.447 C 38.202 328.411,39.689 329.200,39.917 329.200 C 40.146 329.200,40.393 329.335,40.467 329.500 C 40.587 329.771,42.019 330.605,45.400 332.373 C 46.060 332.718,46.690 333.090,46.800 333.200 C 46.910 333.310,47.630 333.734,48.400 334.141 C 51.238 335.644,54.259 337.336,56.452 338.650 C 57.691 339.393,58.906 340.000,59.152 340.000 C 59.399 340.000,59.600 340.141,59.600 340.312 C 59.600 340.484,60.095 340.834,60.700 341.090 C 61.305 341.346,63.060 342.284,64.600 343.175 C 66.140 344.066,68.030 345.111,68.800 345.497 C 69.570 345.884,70.260 346.335,70.333 346.500 C 70.407 346.665,70.626 346.800,70.821 346.800 C 71.016 346.800,72.699 347.700,74.562 348.800 C 76.424 349.900,78.139 350.800,78.374 350.800 C 78.608 350.800,78.802 350.935,78.804 351.100 C 78.806 351.265,79.796 351.839,81.004 352.376 C 82.212 352.913,83.200 353.498,83.200 353.676 C 83.200 353.854,83.393 354.000,83.628 354.000 C 83.863 354.000,85.390 354.810,87.021 355.800 C 88.652 356.790,90.072 357.600,90.176 357.600 C 90.280 357.600,91.283 358.141,92.405 358.803 C 94.655 360.129,99.129 362.592,101.000 363.533 C 101.660 363.866,102.290 364.241,102.400 364.369 C 102.604 364.603,104.104 365.450,107.000 366.964 C 107.880 367.424,108.690 367.890,108.800 368.000 C 108.910 368.110,109.720 368.587,110.600 369.060 C 111.480 369.533,113.190 370.456,114.400 371.111 C 115.610 371.766,117.230 372.639,118.000 373.051 C 118.770 373.463,119.460 373.935,119.533 374.100 C 119.607 374.265,119.907 374.400,120.200 374.400 C 120.493 374.400,120.793 374.535,120.867 374.700 C 120.940 374.865,121.810 375.428,122.800 375.952 C 129.185 379.329,131.287 380.487,131.600 380.800 C 131.791 380.991,132.796 381.539,137.536 384.037 C 138.711 384.656,139.881 385.325,140.136 385.523 C 140.605 385.888,144.526 388.068,148.200 390.006 C 149.300 390.587,151.153 391.633,152.318 392.331 C 153.482 393.029,154.520 393.600,154.624 393.600 C 154.728 393.600,156.206 394.420,157.907 395.422 C 159.608 396.425,161.270 397.385,161.600 397.556 C 164.605 399.116,168.860 401.502,169.993 402.264 C 170.759 402.779,171.528 403.200,171.701 403.200 C 171.874 403.200,172.687 403.622,173.508 404.137 C 175.068 405.117,177.748 406.622,181.800 408.794 C 183.120 409.501,184.920 410.467,185.800 410.940 C 186.680 411.413,187.490 411.906,187.600 412.035 C 188.178 412.714,193.307 414.875,195.208 415.241 C 201.117 416.378,204.254 415.912,209.800 413.077 C 210.680 412.627,211.670 412.120,212.000 411.952 C 212.330 411.783,213.992 410.825,215.693 409.822 C 217.394 408.820,218.872 408.000,218.976 408.000 C 219.080 408.000,220.083 407.459,221.205 406.797 C 222.327 406.135,224.360 404.988,225.723 404.247 C 231.192 401.274,233.066 400.224,234.492 399.333 C 235.313 398.820,236.099 398.400,236.240 398.400 C 236.380 398.400,237.509 397.788,238.748 397.041 C 241.573 395.336,243.597 394.196,246.400 392.730 C 247.610 392.097,249.500 391.045,250.600 390.391 C 251.700 389.738,252.870 389.081,253.200 388.931 C 253.530 388.781,254.430 388.270,255.200 387.795 C 255.970 387.320,257.950 386.198,259.600 385.302 C 261.250 384.406,263.770 383.019,265.200 382.221 C 266.630 381.422,268.250 380.554,268.800 380.292 C 269.350 380.030,269.890 379.723,270.000 379.608 C 270.210 379.389,270.637 379.144,273.829 377.413 C 274.913 376.824,276.610 375.882,277.600 375.318 C 282.515 372.521,285.065 371.141,285.700 370.934 C 286.085 370.809,286.400 370.570,286.400 370.402 C 286.400 370.234,286.985 369.864,287.700 369.579 C 288.415 369.294,289.450 368.759,290.000 368.391 C 290.940 367.763,292.210 367.050,298.277 363.753 C 299.640 363.012,301.673 361.865,302.795 361.203 C 303.917 360.541,304.992 360.000,305.184 360.000 C 305.376 360.000,305.593 359.857,305.667 359.681 C 305.740 359.506,306.520 358.987,307.400 358.529 C 310.999 356.656,312.813 355.650,315.099 354.261 C 316.422 353.458,317.610 352.800,317.738 352.800 C 317.867 352.800,319.306 351.990,320.936 351.000 C 322.567 350.010,324.089 349.200,324.317 349.200 C 324.546 349.200,324.793 349.065,324.867 348.900 C 324.991 348.621,326.090 347.986,330.247 345.792 C 331.153 345.313,332.976 344.265,334.299 343.461 C 335.622 342.658,336.810 342.000,336.938 342.000 C 337.067 342.000,338.506 341.190,340.136 340.200 C 341.767 339.210,343.289 338.400,343.517 338.400 C 343.746 338.400,343.993 338.265,344.067 338.100 C 344.140 337.935,345.100 337.353,346.200 336.806 C 347.300 336.259,348.438 335.584,348.729 335.306 C 349.019 335.028,349.445 334.800,349.674 334.800 C 349.904 334.800,351.391 333.990,352.979 333.000 C 354.568 332.010,355.984 331.200,356.127 331.200 C 356.269 331.200,357.525 330.503,358.916 329.651 C 360.308 328.800,361.841 327.977,362.323 327.824 C 362.805 327.671,363.201 327.423,363.201 327.273 C 363.202 327.123,364.192 326.550,365.400 326.000 C 366.608 325.450,367.598 324.865,367.599 324.700 C 367.599 324.535,367.806 324.400,368.059 324.400 C 368.606 324.400,371.738 321.886,373.290 320.200 C 373.898 319.540,375.151 317.560,376.074 315.800 L 377.754 312.600 378.070 253.200 C 378.391 192.802,378.193 137.288,377.623 128.600 C 377.234 122.658,375.889 119.903,370.995 115.026 C 369.911 113.945,363.254 109.600,362.684 109.600 C 362.564 109.600,361.096 108.790,359.422 107.800 C 357.747 106.810,356.217 106.000,356.022 106.000 C 355.826 106.000,355.607 105.865,355.533 105.700 C 355.460 105.535,354.500 104.954,353.400 104.410 C 352.300 103.865,351.310 103.325,351.200 103.210 C 351.090 103.094,350.370 102.693,349.600 102.318 C 347.987 101.532,345.094 99.894,344.800 99.600 C 344.690 99.490,343.970 99.064,343.200 98.653 C 342.430 98.241,340.180 97.004,338.200 95.903 C 331.918 92.410,330.633 91.700,329.218 90.941 C 328.458 90.534,327.590 89.975,327.290 89.700 C 326.989 89.425,326.501 89.200,326.205 89.200 C 325.909 89.200,325.607 89.065,325.533 88.900 C 325.460 88.735,324.500 88.150,323.400 87.600 C 322.300 87.050,321.310 86.497,321.200 86.371 C 321.090 86.244,319.650 85.434,318.000 84.571 C 316.350 83.707,314.910 82.910,314.800 82.800 C 314.597 82.598,313.130 81.792,310.200 80.273 C 309.320 79.817,308.510 79.344,308.400 79.222 C 308.290 79.100,307.660 78.721,307.000 78.379 C 304.689 77.183,302.198 75.798,302.000 75.600 C 301.890 75.490,300.903 74.950,299.807 74.400 C 298.711 73.850,297.573 73.175,297.279 72.900 C 296.984 72.625,296.486 72.400,296.171 72.400 C 295.857 72.400,295.600 72.259,295.600 72.088 C 295.600 71.916,295.105 71.566,294.500 71.309 C 293.895 71.053,291.960 70.016,290.200 69.005 C 288.440 67.994,286.550 66.953,286.000 66.692 C 285.450 66.430,284.910 66.123,284.800 66.008 C 284.599 65.800,283.189 65.022,280.200 63.473 C 279.320 63.017,278.510 62.544,278.400 62.422 C 278.290 62.300,277.570 61.864,276.800 61.452 C 276.030 61.041,274.320 60.121,273.000 59.407 C 271.680 58.694,269.970 57.770,269.200 57.355 C 268.430 56.940,267.710 56.510,267.600 56.400 C 267.490 56.290,266.770 55.864,266.000 55.452 C 265.230 55.041,263.520 54.121,262.200 53.407 C 260.880 52.694,259.170 51.770,258.400 51.355 C 257.630 50.940,256.910 50.510,256.800 50.400 C 256.690 50.290,255.970 49.856,255.200 49.436 C 251.564 47.450,249.267 46.218,247.800 45.465 C 246.920 45.014,246.110 44.545,246.000 44.422 C 245.679 44.065,242.723 42.409,241.200 41.732 C 240.430 41.390,239.710 40.995,239.600 40.855 C 239.490 40.715,238.860 40.309,238.200 39.952 C 237.540 39.596,236.010 38.761,234.800 38.097 C 233.590 37.433,231.790 36.474,230.800 35.966 C 229.810 35.459,228.910 34.944,228.800 34.822 C 228.690 34.700,228.240 34.405,227.800 34.166 C 224.134 32.179,220.267 30.057,218.600 29.118 C 217.500 28.499,215.970 27.679,215.200 27.296 C 214.430 26.913,213.740 26.465,213.667 26.300 C 213.593 26.135,213.376 26.000,213.184 26.000 C 212.992 26.000,211.972 25.503,210.918 24.895 C 208.899 23.732,205.681 22.621,203.000 22.161 C 201.145 21.843,196.072 21.662,195.829 21.905 M209.000 87.632 C 215.638 88.007,215.971 88.040,220.600 88.778 C 222.140 89.023,223.760 89.276,224.200 89.340 C 225.902 89.586,228.227 90.073,228.800 90.303 C 229.130 90.435,229.670 90.592,230.000 90.651 C 230.330 90.710,231.230 90.937,232.000 91.155 C 232.770 91.373,234.210 91.755,235.200 92.003 C 236.190 92.251,237.276 92.599,237.613 92.776 C 237.950 92.953,238.850 93.232,239.613 93.395 C 240.376 93.559,241.180 93.831,241.400 94.000 C 241.620 94.169,242.429 94.442,243.198 94.607 C 243.968 94.772,245.228 95.178,245.998 95.509 C 246.769 95.840,247.760 96.254,248.200 96.428 C 250.071 97.171,252.282 98.097,253.400 98.605 C 256.719 100.116,258.396 100.800,258.778 100.800 C 259.010 100.800,259.200 100.938,259.200 101.106 C 259.200 101.274,260.145 101.852,261.300 102.392 C 262.455 102.931,263.490 103.469,263.600 103.586 C 263.710 103.704,264.655 104.246,265.700 104.792 C 266.745 105.337,267.600 105.922,267.600 106.092 C 267.600 106.261,267.857 106.400,268.171 106.400 C 268.486 106.400,268.981 106.635,269.271 106.923 C 269.562 107.211,271.240 108.384,273.000 109.531 C 277.597 112.524,277.550 112.493,279.145 113.717 C 281.348 115.408,281.994 115.933,284.600 118.155 C 285.920 119.280,287.530 120.650,288.179 121.200 C 291.607 124.106,300.727 133.745,301.767 135.560 C 301.968 135.912,302.913 137.119,303.867 138.243 C 304.820 139.367,305.600 140.470,305.600 140.694 C 305.600 140.918,305.840 141.301,306.134 141.545 C 306.428 141.789,308.069 144.056,309.781 146.584 C 312.947 151.260,313.244 152.254,311.598 152.685 C 311.159 152.799,310.800 153.011,310.800 153.155 C 310.800 153.299,309.948 153.863,308.907 154.408 C 307.866 154.954,306.773 155.625,306.479 155.900 C 306.184 156.175,305.686 156.400,305.371 156.400 C 305.057 156.400,304.800 156.580,304.800 156.800 C 304.800 157.020,304.603 157.200,304.363 157.200 C 304.123 157.200,301.812 158.460,299.227 160.000 C 296.643 161.540,294.353 162.800,294.140 162.800 C 293.926 162.800,293.402 163.121,292.975 163.513 C 292.549 163.905,291.570 164.542,290.800 164.928 C 290.030 165.314,288.500 166.162,287.400 166.813 C 286.300 167.464,285.130 168.122,284.800 168.275 C 284.470 168.428,282.466 169.599,280.346 170.877 C 278.226 172.155,276.291 173.200,276.046 173.200 C 275.801 173.200,275.596 173.335,275.592 173.500 C 275.587 173.665,274.601 174.250,273.400 174.800 C 272.199 175.350,271.213 175.935,271.208 176.100 C 271.204 176.265,270.988 176.400,270.729 176.400 C 270.470 176.400,268.758 177.300,266.924 178.400 C 265.090 179.500,263.411 180.400,263.194 180.400 C 262.978 180.400,262.800 180.580,262.800 180.800 C 262.800 181.020,262.570 181.200,262.290 181.200 C 262.009 181.200,260.460 182.021,258.848 183.025 C 257.235 184.028,255.871 184.793,255.816 184.725 C 255.761 184.656,254.680 183.188,253.414 181.462 C 249.657 176.340,243.179 169.605,239.000 166.477 C 235.077 163.540,225.650 158.400,224.188 158.400 C 223.864 158.400,223.600 158.261,223.600 158.092 C 223.600 157.824,218.091 155.907,217.000 155.795 C 216.780 155.773,216.330 155.642,216.000 155.505 C 215.235 155.188,211.355 154.456,208.000 153.997 C 204.649 153.538,194.609 153.546,191.000 154.009 C 187.391 154.473,183.122 155.321,182.562 155.686 C 182.321 155.842,181.376 156.090,180.462 156.237 C 179.548 156.383,178.800 156.639,178.800 156.807 C 178.800 156.974,178.148 157.233,177.351 157.383 C 176.554 157.532,175.609 157.807,175.251 157.994 C 174.893 158.181,172.759 159.248,170.508 160.366 C 168.258 161.484,165.045 163.344,163.368 164.500 C 161.690 165.655,159.891 166.883,159.368 167.229 C 156.163 169.351,146.547 179.987,144.567 183.600 C 144.145 184.370,143.694 185.090,143.564 185.200 C 143.154 185.548,139.200 193.805,139.200 194.313 C 139.200 194.581,139.034 194.800,138.832 194.800 C 138.629 194.800,138.349 195.385,138.208 196.100 C 138.068 196.815,137.798 197.760,137.607 198.200 C 134.300 205.843,133.461 220.271,135.617 232.400 C 135.871 233.830,136.221 235.180,136.394 235.400 C 136.568 235.620,136.836 236.564,136.990 237.498 C 137.144 238.432,137.414 239.285,137.589 239.393 C 137.765 239.502,138.028 240.222,138.172 240.992 C 138.317 241.763,138.861 243.250,139.381 244.297 C 139.901 245.344,140.744 247.100,141.254 248.200 C 145.005 256.288,153.027 265.642,161.682 272.023 C 163.158 273.110,164.531 274.000,164.733 274.000 C 164.936 274.000,165.311 274.252,165.566 274.560 C 166.025 275.113,173.153 278.800,173.763 278.800 C 173.937 278.800,174.646 279.046,175.340 279.346 C 180.119 281.415,185.421 283.024,186.865 282.844 C 187.230 282.799,187.646 282.950,187.788 283.181 C 187.931 283.411,188.703 283.600,189.505 283.600 C 190.307 283.600,192.861 283.808,195.182 284.063 C 202.070 284.818,214.515 283.184,220.800 280.698 C 221.130 280.568,222.067 280.256,222.881 280.006 C 223.696 279.755,225.226 279.112,226.281 278.577 C 227.337 278.041,228.339 277.603,228.509 277.602 C 230.443 277.591,242.527 268.779,246.319 264.613 C 246.914 263.960,247.928 262.880,248.573 262.213 C 249.218 261.546,250.883 259.470,252.272 257.600 C 253.661 255.730,254.939 254.020,255.113 253.800 C 255.286 253.580,255.737 252.955,256.114 252.411 C 256.491 251.867,256.803 251.597,256.806 251.811 C 256.810 252.025,257.755 252.650,258.906 253.200 C 260.058 253.750,261.090 254.290,261.200 254.400 C 261.404 254.603,262.159 255.024,266.800 257.520 C 268.230 258.289,269.850 259.173,270.400 259.485 C 273.025 260.974,276.407 262.821,278.400 263.853 C 279.610 264.479,280.690 265.084,280.800 265.196 C 280.910 265.308,281.720 265.787,282.600 266.260 C 283.480 266.733,284.920 267.524,285.800 268.018 C 286.680 268.513,288.480 269.497,289.800 270.207 C 291.120 270.916,293.100 271.987,294.200 272.587 C 295.300 273.187,297.550 274.406,299.200 275.295 C 300.850 276.184,302.380 277.043,302.600 277.203 C 303.075 277.549,306.454 279.410,309.800 281.169 C 311.120 281.862,312.650 282.776,313.200 283.198 L 314.200 283.965 313.200 285.868 C 312.342 287.501,307.978 293.778,304.132 298.911 C 302.611 300.941,302.600 300.954,299.400 304.603 C 297.860 306.360,296.420 308.040,296.200 308.336 C 294.968 309.999,286.941 317.749,284.737 319.404 C 282.446 321.124,280.381 322.747,279.169 323.780 C 277.587 325.129,277.805 324.979,272.200 328.580 C 270.000 329.994,267.983 331.342,267.717 331.575 C 267.451 331.809,267.061 332.000,266.850 332.000 C 266.639 332.000,266.407 332.135,266.333 332.300 C 266.260 332.465,264.760 333.342,263.000 334.249 C 261.240 335.156,258.900 336.364,257.800 336.934 C 255.617 338.064,251.632 339.856,248.800 340.981 C 247.810 341.374,246.640 341.849,246.200 342.036 C 245.760 342.223,244.230 342.752,242.800 343.210 C 241.370 343.668,239.907 344.201,239.549 344.394 C 239.191 344.587,238.201 344.871,237.349 345.025 C 236.497 345.179,235.623 345.408,235.407 345.534 C 235.191 345.659,234.741 345.807,234.407 345.861 C 234.073 345.915,232.990 346.156,232.000 346.396 C 229.368 347.033,228.808 347.159,226.600 347.610 C 225.500 347.835,224.195 348.107,223.701 348.215 C 222.892 348.391,219.387 348.929,215.600 349.459 C 206.859 350.681,194.130 350.670,183.400 349.432 C 177.851 348.792,175.093 348.381,174.694 348.135 C 174.443 347.979,173.059 347.623,171.619 347.343 C 170.178 347.063,167.920 346.624,166.600 346.368 C 165.280 346.113,164.020 345.761,163.800 345.588 C 163.580 345.414,162.723 345.145,161.896 344.990 C 161.068 344.836,160.293 344.550,160.172 344.355 C 160.051 344.160,159.524 344.000,159.000 344.000 C 158.476 344.000,157.928 343.808,157.783 343.573 C 157.638 343.338,157.273 343.240,156.972 343.355 C 156.672 343.471,156.319 343.393,156.189 343.183 C 156.059 342.972,155.676 342.800,155.337 342.800 C 154.998 342.800,154.064 342.511,153.260 342.157 C 152.457 341.803,151.215 341.263,150.500 340.957 C 149.785 340.651,148.570 340.130,147.800 339.800 C 143.133 337.800,139.641 336.144,137.200 334.774 C 134.198 333.089,127.446 329.059,127.200 328.806 C 126.630 328.219,124.377 326.800,124.016 326.800 C 123.787 326.800,123.600 326.649,123.600 326.464 C 123.600 326.280,123.195 325.944,122.699 325.718 C 122.204 325.492,121.169 324.762,120.399 324.094 C 119.630 323.427,118.100 322.130,117.000 321.211 C 115.900 320.293,114.102 318.790,113.005 317.871 C 109.133 314.629,100.614 305.835,98.513 302.912 C 98.004 302.203,97.127 301.123,96.566 300.512 C 94.929 298.730,94.562 298.270,93.764 297.000 C 93.350 296.340,92.828 295.597,92.605 295.349 C 92.382 295.101,91.930 294.495,91.600 294.003 C 91.270 293.510,90.707 292.723,90.349 292.253 C 88.833 290.264,84.002 281.872,82.029 277.800 C 80.856 275.380,79.488 272.564,78.989 271.542 C 78.490 270.520,77.959 269.125,77.809 268.442 C 77.659 267.759,77.371 267.200,77.168 267.200 C 76.966 267.200,76.794 266.885,76.786 266.500 C 76.779 266.115,76.425 265.080,76.000 264.200 C 75.575 263.320,75.221 262.296,75.214 261.924 C 75.206 261.552,75.044 261.151,74.853 261.032 C 74.661 260.914,74.384 260.058,74.235 259.129 C 74.086 258.200,73.814 257.251,73.629 257.020 C 73.444 256.789,73.082 255.700,72.824 254.600 C 72.567 253.500,72.086 251.520,71.754 250.200 C 71.170 247.872,70.534 244.849,70.196 242.800 C 70.106 242.250,69.830 240.720,69.584 239.400 C 68.270 232.359,67.866 223.494,68.362 212.600 C 68.592 207.540,68.870 202.770,68.979 202.000 C 69.541 198.049,70.025 194.915,70.185 194.200 C 70.282 193.760,70.486 192.680,70.637 191.800 C 70.788 190.920,71.043 190.020,71.205 189.800 C 71.367 189.580,71.629 188.500,71.787 187.400 C 71.945 186.300,72.216 185.220,72.389 185.000 C 72.562 184.780,72.892 183.610,73.123 182.400 C 73.490 180.473,74.922 176.143,76.340 172.674 C 76.593 172.055,76.800 171.377,76.800 171.169 C 76.800 170.960,76.971 170.477,77.181 170.095 C 77.390 169.713,77.827 168.770,78.152 168.000 C 81.173 160.837,83.233 156.809,87.395 149.931 C 87.618 149.563,88.570 148.123,89.511 146.731 C 90.452 145.339,91.442 143.871,91.711 143.470 C 92.355 142.508,93.199 141.379,94.285 140.024 C 94.772 139.416,95.852 138.020,96.685 136.922 C 100.454 131.951,107.597 124.429,112.756 119.996 C 114.162 118.788,115.602 117.512,115.956 117.159 C 116.699 116.419,123.547 111.200,123.774 111.200 C 123.923 111.200,132.613 105.518,133.400 104.906 C 134.232 104.259,144.622 99.185,145.100 99.192 C 145.375 99.197,145.600 99.020,145.600 98.800 C 145.600 98.580,145.825 98.394,146.100 98.386 C 146.375 98.379,147.320 98.025,148.200 97.600 C 149.080 97.175,150.027 96.821,150.305 96.814 C 150.583 96.806,151.123 96.629,151.505 96.419 C 152.608 95.815,154.910 94.887,156.000 94.607 C 156.550 94.465,157.360 94.190,157.800 93.994 C 158.597 93.639,160.007 93.221,163.800 92.214 C 164.900 91.922,167.150 91.323,168.800 90.884 C 170.450 90.444,172.430 89.975,173.200 89.841 C 173.970 89.707,175.050 89.490,175.600 89.360 C 176.568 89.131,179.705 88.621,183.000 88.158 C 189.192 87.289,199.297 87.084,209.000 87.632 M284.707 199.900 L 284.815 209.200 294.007 209.200 L 303.200 209.200 303.200 219.000 L 303.200 228.800 294.000 228.800 L 284.800 228.800 284.800 238.000 L 284.800 247.200 275.000 247.200 L 265.200 247.200 265.200 238.007 L 265.200 228.815 255.900 228.707 L 246.600 228.600 246.493 218.907 L 246.386 209.215 255.693 209.107 L 265.000 209.000 265.107 199.693 L 265.215 190.386 274.907 190.493 L 284.600 190.600 284.707 199.900 M350.307 199.900 L 350.415 209.200 359.607 209.200 L 368.800 209.200 368.800 219.000 L 368.800 228.800 359.600 228.800 L 350.400 228.800 350.400 238.000 L 350.400 247.200 340.600 247.200 L 330.800 247.200 330.800 238.000 L 330.800 228.800 321.900 228.794 C 317.005 228.791,312.772 228.643,312.492 228.466 C 312.101 228.217,312.009 226.002,312.092 218.772 L 312.200 209.400 321.400 209.200 L 330.600 209.000 330.702 200.200 C 330.758 195.360,330.889 191.172,330.992 190.893 C 331.139 190.498,333.297 190.409,340.690 190.493 L 350.200 190.600 350.307 199.900 " stroke="none" fill="#434343" fill-rule="evenodd"></path><path id="path1" d="M0.000 210.400 L 0.000 420.800 200.000 420.800 L 400.000 420.800 400.000 210.400 L 400.000 0.000 200.000 0.000 L 0.000 0.000 0.000 210.400 M202.000 21.605 C 204.090 21.820,206.160 22.165,206.600 22.372 C 207.040 22.579,208.210 23.112,209.200 23.556 C 210.190 24.000,212.260 25.058,213.800 25.907 C 220.651 29.682,222.310 30.593,224.000 31.505 C 224.990 32.040,226.017 32.655,226.282 32.872 C 226.547 33.090,227.357 33.580,228.082 33.962 C 234.322 37.248,237.458 38.951,238.718 39.736 C 239.533 40.243,240.470 40.783,240.800 40.934 C 241.130 41.086,242.120 41.633,243.000 42.149 C 243.880 42.666,247.480 44.661,251.000 46.583 C 254.520 48.505,259.020 51.031,261.000 52.195 C 262.980 53.359,265.770 54.895,267.200 55.607 C 268.630 56.320,269.890 57.015,270.000 57.152 C 270.110 57.289,271.010 57.821,272.000 58.334 C 272.990 58.847,274.970 59.937,276.400 60.756 C 279.806 62.706,282.800 64.370,286.000 66.092 C 287.430 66.861,290.393 68.528,292.584 69.796 C 294.775 71.063,298.105 72.915,299.984 73.910 C 301.863 74.906,303.670 75.926,304.000 76.177 C 304.330 76.428,305.410 77.044,306.400 77.546 C 307.390 78.048,309.280 79.096,310.600 79.875 C 312.976 81.277,315.077 82.450,319.877 85.051 C 322.483 86.464,326.185 88.556,327.200 89.190 C 327.838 89.589,332.548 92.242,335.453 93.840 C 336.414 94.368,337.965 95.225,338.900 95.744 C 339.835 96.263,341.860 97.380,343.400 98.225 C 344.940 99.071,346.260 99.906,346.333 100.081 C 346.407 100.257,346.636 100.400,346.843 100.400 C 347.049 100.400,348.609 101.188,350.309 102.151 C 352.009 103.114,355.740 105.206,358.600 106.800 C 370.899 113.655,372.649 115.022,376.112 120.486 C 378.354 124.024,378.200 116.743,378.200 219.200 L 378.200 313.000 376.729 315.800 C 374.323 320.379,369.201 325.068,364.239 327.232 C 363.777 327.433,363.130 327.780,362.800 328.001 C 362.470 328.223,360.220 329.507,357.800 330.855 C 355.380 332.202,351.523 334.361,349.230 335.652 C 346.936 336.944,344.979 338.000,344.881 338.000 C 344.782 338.000,343.367 338.810,341.736 339.800 C 340.106 340.790,338.685 341.600,338.579 341.600 C 338.473 341.600,337.084 342.385,335.493 343.344 C 333.902 344.303,330.800 346.048,328.600 347.221 C 326.400 348.395,323.472 350.040,322.093 350.877 C 320.714 351.715,319.496 352.400,319.385 352.400 C 319.275 352.400,318.468 352.852,317.594 353.404 C 315.997 354.412,313.967 355.541,308.400 358.514 C 306.750 359.395,304.929 360.446,304.352 360.848 C 303.776 361.251,302.876 361.764,302.352 361.989 C 301.829 362.214,301.047 362.624,300.615 362.899 C 298.904 363.991,296.666 365.283,294.096 366.661 C 289.494 369.129,287.055 370.491,285.577 371.420 C 284.794 371.911,282.454 373.210,280.377 374.307 C 278.300 375.404,275.700 376.830,274.600 377.475 C 273.500 378.120,272.330 378.771,272.000 378.922 C 271.670 379.072,271.047 379.421,270.615 379.697 C 269.148 380.637,267.006 381.875,264.200 383.406 C 262.660 384.246,260.680 385.328,259.800 385.810 C 258.920 386.292,256.940 387.370,255.400 388.204 C 253.860 389.039,251.880 390.175,251.000 390.729 C 250.120 391.283,247.960 392.498,246.200 393.427 C 244.440 394.357,241.740 395.826,240.200 396.692 C 238.660 397.558,236.500 398.771,235.400 399.387 C 234.300 400.003,233.220 400.640,233.000 400.803 C 232.780 400.966,231.430 401.727,230.000 402.495 C 223.551 405.958,220.143 407.859,216.067 410.267 C 214.454 411.220,213.067 412.000,212.985 412.000 C 212.902 412.000,211.964 412.514,210.899 413.141 C 203.457 417.530,195.852 417.208,186.891 412.124 C 183.195 410.028,181.320 408.995,175.800 406.012 C 174.480 405.298,173.220 404.577,173.000 404.408 C 172.780 404.239,171.430 403.473,170.000 402.705 C 168.570 401.937,166.410 400.766,165.200 400.103 C 163.990 399.440,162.370 398.561,161.600 398.149 C 160.830 397.737,160.140 397.265,160.067 397.100 C 159.993 396.935,159.774 396.800,159.579 396.800 C 159.384 396.800,157.734 395.928,155.912 394.862 C 154.091 393.796,150.170 391.604,147.200 389.991 C 144.230 388.378,139.490 385.740,136.666 384.129 C 133.843 382.518,131.381 381.200,131.195 381.200 C 131.009 381.200,130.611 380.975,130.310 380.700 C 130.010 380.425,129.142 379.866,128.382 379.459 C 125.368 377.842,122.496 376.238,120.400 375.002 C 119.190 374.288,116.580 372.844,114.600 371.793 C 112.620 370.742,110.329 369.459,109.508 368.941 C 108.687 368.424,107.902 368.000,107.763 368.000 C 107.625 368.000,106.046 367.119,104.256 366.042 C 102.465 364.964,99.920 363.499,98.600 362.785 C 91.819 359.116,89.381 357.749,84.400 354.824 C 82.310 353.596,79.790 352.182,78.800 351.681 C 77.810 351.180,76.730 350.609,76.400 350.413 C 73.056 348.424,68.208 345.684,62.200 342.388 C 59.780 341.060,57.530 339.807,57.200 339.602 C 56.501 339.170,50.537 335.739,49.482 335.163 C 49.087 334.947,47.737 334.211,46.482 333.526 C 42.992 331.621,38.669 329.209,38.000 328.792 C 35.609 327.304,31.067 324.800,30.758 324.800 C 30.069 324.800,24.181 318.620,23.518 317.200 C 23.158 316.430,22.400 314.663,21.832 313.274 L 20.800 310.747 20.800 220.369 C 20.800 121.626,20.739 124.382,23.016 120.774 C 23.557 119.917,24.000 119.069,24.000 118.890 C 24.000 118.355,28.888 113.653,30.400 112.734 C 32.429 111.499,34.061 110.581,39.000 107.895 C 41.420 106.579,44.840 104.641,46.600 103.589 C 48.360 102.537,50.610 101.240,51.600 100.708 C 52.590 100.176,55.084 98.799,57.141 97.648 C 59.199 96.497,61.179 95.395,61.541 95.200 C 62.177 94.857,67.975 91.538,69.200 90.815 C 69.530 90.620,71.240 89.700,73.000 88.770 C 74.760 87.840,76.833 86.680,77.607 86.193 C 78.381 85.706,80.091 84.715,81.407 83.992 C 84.558 82.261,88.449 80.068,89.200 79.600 C 89.860 79.188,97.661 74.790,100.200 73.397 C 105.312 70.593,111.106 67.354,115.419 64.889 C 116.970 64.003,119.257 62.727,120.501 62.053 C 123.267 60.557,122.989 60.711,129.600 57.000 C 136.713 53.007,136.345 53.209,143.600 49.285 C 145.030 48.511,146.884 47.448,147.719 46.922 C 148.555 46.396,149.635 45.785,150.119 45.566 C 150.604 45.346,151.360 44.944,151.800 44.674 C 152.240 44.403,154.400 43.196,156.599 41.991 C 158.799 40.786,160.959 39.582,161.399 39.316 C 161.840 39.049,162.470 38.702,162.800 38.545 C 163.130 38.387,164.030 37.868,164.800 37.390 C 166.044 36.618,167.779 35.651,173.400 32.597 C 178.281 29.945,180.554 28.686,183.800 26.836 C 189.582 23.542,193.074 21.990,195.517 21.632 C 196.773 21.448,197.890 21.279,198.000 21.256 C 198.110 21.233,199.910 21.390,202.000 21.605 M184.600 88.440 C 183.280 88.614,180.760 88.948,179.000 89.181 C 177.240 89.414,175.530 89.727,175.200 89.877 C 174.870 90.026,173.430 90.363,172.000 90.626 C 170.570 90.888,168.410 91.402,167.200 91.768 C 165.990 92.134,164.280 92.612,163.400 92.830 C 155.929 94.685,139.165 101.744,133.600 105.378 C 132.830 105.881,130.580 107.339,128.600 108.617 C 113.697 118.240,100.421 131.370,90.049 146.745 C 85.599 153.342,79.065 165.860,77.388 171.000 C 77.101 171.880,76.286 174.130,75.578 176.000 C 74.869 177.870,74.050 180.390,73.758 181.600 C 73.466 182.810,72.944 184.790,72.598 186.000 C 71.180 190.957,70.175 196.428,69.217 204.400 C 68.757 208.233,68.754 229.192,69.213 233.400 C 69.786 238.651,70.527 242.690,72.563 251.642 C 73.290 254.840,76.381 264.307,77.512 266.800 C 77.961 267.790,78.994 270.130,79.806 272.000 C 83.865 281.342,91.799 294.493,96.958 300.429 C 97.641 301.215,98.997 302.835,99.971 304.029 C 105.026 310.226,118.290 322.285,125.000 326.786 C 127.540 328.490,137.973 334.800,138.250 334.800 C 138.364 334.800,139.297 335.292,140.324 335.894 C 141.350 336.495,143.902 337.671,145.995 338.508 C 148.088 339.344,150.583 340.391,151.540 340.835 C 152.497 341.279,154.747 342.101,156.540 342.662 C 158.333 343.223,160.780 344.034,161.978 344.465 C 163.176 344.895,165.336 345.492,166.778 345.792 C 168.220 346.091,170.570 346.620,172.000 346.967 C 175.162 347.734,180.886 348.665,186.000 349.245 C 190.916 349.803,210.173 349.779,213.800 349.211 C 215.340 348.970,217.950 348.602,219.600 348.393 C 221.250 348.185,223.320 347.842,224.200 347.630 C 225.080 347.419,227.600 346.861,229.800 346.390 C 232.000 345.920,234.250 345.384,234.800 345.200 C 235.350 345.017,237.690 344.293,240.000 343.592 C 242.310 342.892,244.740 342.075,245.400 341.778 C 246.060 341.480,247.590 340.858,248.800 340.396 C 252.758 338.883,253.349 338.621,256.995 336.751 C 264.838 332.730,267.507 331.239,270.056 329.457 C 271.516 328.436,272.823 327.600,272.960 327.600 C 273.212 327.600,277.700 324.326,280.600 322.025 C 281.480 321.327,282.828 320.271,283.596 319.678 C 287.241 316.863,294.556 309.711,297.523 306.062 C 298.335 305.063,299.501 303.728,300.113 303.096 C 302.983 300.130,313.600 285.040,313.600 283.926 C 313.600 283.733,313.285 283.459,312.900 283.318 C 312.515 283.177,310.580 282.165,308.600 281.071 C 306.620 279.976,304.280 278.691,303.400 278.215 C 302.520 277.739,300.360 276.534,298.600 275.537 C 296.840 274.539,293.870 272.913,292.000 271.922 C 290.130 270.932,286.890 269.162,284.800 267.991 C 282.710 266.819,280.280 265.470,279.400 264.994 C 278.520 264.517,276.540 263.439,275.000 262.598 C 273.460 261.756,271.210 260.536,270.000 259.887 C 268.790 259.237,267.620 258.571,267.400 258.406 C 266.887 258.023,263.863 256.347,259.798 254.195 C 256.278 252.331,256.535 252.281,254.618 255.200 C 250.425 261.584,242.971 269.260,237.609 272.715 C 232.179 276.214,229.231 277.910,227.000 278.817 C 225.680 279.353,224.508 279.915,224.396 280.065 C 224.284 280.214,223.654 280.463,222.996 280.618 C 222.338 280.772,220.720 281.261,219.400 281.704 C 212.826 283.910,209.634 284.337,199.457 284.371 C 192.916 284.393,189.995 284.242,187.857 283.774 C 183.010 282.711,176.182 280.603,175.420 279.934 C 175.211 279.750,174.791 279.600,174.487 279.600 C 173.168 279.600,166.755 276.054,161.042 272.165 C 158.003 270.096,151.526 263.928,148.793 260.499 C 147.434 258.795,145.980 256.994,145.561 256.497 C 145.143 256.000,144.800 255.514,144.800 255.417 C 144.800 255.320,144.258 254.437,143.596 253.456 C 141.242 249.968,137.156 240.807,136.346 237.200 C 136.173 236.430,135.581 233.820,135.031 231.400 C 132.392 219.780,134.373 202.659,139.615 191.800 C 144.180 182.342,152.541 171.490,158.566 167.201 C 164.798 162.765,168.296 160.701,174.400 157.862 C 176.053 157.094,181.684 155.332,184.800 154.609 C 186.010 154.328,187.270 153.995,187.600 153.868 C 190.526 152.742,207.523 152.814,211.400 153.969 C 212.060 154.165,214.040 154.644,215.800 155.032 C 219.320 155.809,224.870 157.822,227.822 159.391 C 228.866 159.946,229.857 160.400,230.027 160.400 C 232.780 160.400,246.217 171.463,251.270 177.891 C 252.002 178.821,253.388 180.580,254.352 181.800 L 256.104 184.017 258.352 182.747 C 262.141 180.607,262.928 180.154,265.000 178.929 C 266.100 178.278,268.260 177.057,269.800 176.216 C 275.615 173.037,277.076 172.215,279.800 170.593 C 282.500 168.985,283.371 168.490,288.600 165.594 C 289.920 164.863,293.829 162.586,297.286 160.533 C 300.743 158.480,303.660 156.800,303.767 156.800 C 304.101 156.800,311.968 151.976,312.171 151.647 C 312.336 151.380,308.382 145.092,306.448 142.546 C 306.092 142.077,305.530 141.286,305.200 140.788 C 299.633 132.399,288.762 121.505,278.200 113.732 C 276.000 112.113,274.020 110.650,273.800 110.481 C 273.580 110.313,272.680 109.738,271.800 109.204 C 270.920 108.671,270.140 108.091,270.067 107.917 C 269.993 107.743,269.744 107.600,269.512 107.600 C 269.280 107.600,267.891 106.810,266.425 105.844 C 261.835 102.820,247.600 96.191,243.998 95.400 C 243.244 95.234,242.350 94.955,242.013 94.781 C 241.090 94.303,233.999 92.116,232.400 91.816 C 231.630 91.671,230.640 91.390,230.200 91.191 C 228.731 90.524,220.456 89.075,214.400 88.423 C 210.297 87.981,187.970 87.994,184.600 88.440 M265.952 191.000 C 265.926 191.000,265.865 195.005,265.818 199.901 C 265.722 209.709,265.801 209.392,263.461 209.420 C 262.547 209.431,258.425 209.476,254.300 209.520 L 246.800 209.600 246.800 218.800 L 246.800 228.000 251.900 228.032 C 258.792 228.075,265.298 228.365,265.574 228.641 C 265.698 228.765,265.761 232.317,265.714 236.533 C 265.667 240.750,265.720 244.785,265.832 245.500 L 266.036 246.800 275.018 246.800 L 284.000 246.800 284.000 237.661 L 284.000 228.522 288.500 228.263 C 290.975 228.120,295.171 228.003,297.825 228.002 L 302.651 228.000 302.705 219.900 C 302.735 215.445,302.667 211.320,302.555 210.734 L 302.351 209.667 293.676 209.534 C 288.904 209.460,284.775 209.254,284.500 209.076 C 284.125 208.834,284.000 206.558,284.000 199.976 L 284.000 191.200 282.900 191.138 C 282.115 191.094,270.560 191.000,265.952 191.000 M331.600 200.091 L 331.600 209.200 322.200 209.200 L 312.800 209.200 312.800 218.800 L 312.800 228.400 322.200 228.400 L 331.600 228.400 331.600 237.600 L 331.600 246.800 340.800 246.800 L 350.000 246.800 350.000 237.600 L 350.000 228.400 359.155 228.400 L 368.309 228.400 368.520 226.700 C 368.637 225.765,368.692 221.490,368.644 217.200 L 368.557 209.400 359.278 209.293 L 350.000 209.185 350.000 200.074 L 350.000 190.962 340.800 190.973 L 331.600 190.983 331.600 200.091 " stroke="none" fill="#f0f0f0" fill-rule="evenodd"></path><path id="path2" d="M198.305 21.883 C 198.802 21.979,199.522 21.975,199.905 21.875 C 200.287 21.775,199.880 21.696,199.000 21.701 C 198.120 21.705,197.807 21.787,198.305 21.883 M195.119 87.498 C 196.944 87.572,199.824 87.572,201.519 87.497 C 203.214 87.422,201.720 87.361,198.200 87.362 C 194.680 87.362,193.294 87.424,195.119 87.498 M104.987 127.300 L 102.600 129.800 105.100 127.413 C 107.422 125.195,107.783 124.800,107.487 124.800 C 107.426 124.800,106.301 125.925,104.987 127.300 M377.724 129.400 C 377.726 130.720,377.801 131.212,377.890 130.493 C 377.979 129.774,377.977 128.694,377.886 128.093 C 377.795 127.492,377.722 128.080,377.724 129.400 M21.337 131.400 C 21.339 133.160,21.409 133.830,21.493 132.889 C 21.578 131.949,21.577 130.509,21.491 129.689 C 21.405 128.870,21.336 129.640,21.337 131.400 M378.171 146.400 C 378.171 151.350,378.228 153.375,378.299 150.900 C 378.369 148.425,378.369 144.375,378.299 141.900 C 378.228 139.425,378.171 141.450,378.171 146.400 M198.300 153.493 C 199.235 153.577,200.765 153.577,201.700 153.493 C 202.635 153.409,201.870 153.340,200.000 153.340 C 198.130 153.340,197.365 153.409,198.300 153.493 M378.120 160.400 C 378.120 161.610,378.195 162.105,378.287 161.500 C 378.378 160.895,378.378 159.905,378.287 159.300 C 378.195 158.695,378.120 159.190,378.120 160.400 M378.109 168.000 C 378.109 168.990,378.187 169.395,378.282 168.900 C 378.378 168.405,378.378 167.595,378.282 167.100 C 378.187 166.605,378.109 167.010,378.109 168.000 M330.994 190.900 C 330.687 191.746,330.581 209.180,330.885 208.876 C 331.147 208.614,331.543 190.399,331.287 190.400 C 331.226 190.400,331.093 190.625,330.994 190.900 M284.572 199.800 C 284.572 204.860,284.629 206.875,284.699 204.277 C 284.769 201.680,284.768 197.540,284.698 195.077 C 284.628 192.615,284.571 194.740,284.572 199.800 M350.172 199.800 C 350.172 204.860,350.229 206.875,350.299 204.277 C 350.369 201.680,350.368 197.540,350.298 195.077 C 350.228 192.615,350.171 194.740,350.172 199.800 M312.173 219.000 C 312.173 224.280,312.230 226.385,312.299 223.677 C 312.368 220.969,312.368 216.649,312.299 214.077 C 312.229 211.505,312.172 213.720,312.173 219.000 M68.157 220.800 C 68.157 223.770,68.220 224.985,68.297 223.500 C 68.374 222.015,68.374 219.585,68.297 218.100 C 68.220 216.615,68.157 217.830,68.157 220.800 M378.193 264.600 C 378.193 290.120,378.241 300.619,378.300 287.931 C 378.359 275.243,378.359 254.363,378.300 241.531 C 378.241 228.699,378.193 239.080,378.193 264.600 M246.747 228.508 C 246.917 228.677,251.183 228.767,256.228 228.707 L 265.400 228.599 255.919 228.399 C 250.705 228.290,246.577 228.338,246.747 228.508 M284.580 228.909 C 284.472 229.189,284.436 233.464,284.500 238.409 L 284.616 247.400 284.708 238.107 L 284.800 228.815 294.100 228.700 L 303.400 228.585 294.087 228.492 C 286.850 228.421,284.731 228.513,284.580 228.909 M321.792 228.696 L 330.785 228.815 330.904 238.008 L 331.023 247.200 331.011 237.900 L 331.000 228.600 321.900 228.588 L 312.800 228.577 321.792 228.696 M350.180 228.909 C 350.072 229.189,350.036 233.464,350.100 238.409 L 350.216 247.400 350.308 238.107 L 350.400 228.815 359.700 228.700 L 369.000 228.585 359.687 228.492 C 352.450 228.421,350.331 228.513,350.180 228.909 M190.900 283.876 C 191.285 283.976,191.915 283.976,192.300 283.876 C 192.685 283.775,192.370 283.693,191.600 283.693 C 190.830 283.693,190.515 283.775,190.900 283.876 M203.500 284.282 C 203.995 284.378,204.805 284.378,205.300 284.282 C 205.795 284.187,205.390 284.109,204.400 284.109 C 203.410 284.109,203.005 284.187,203.500 284.282 M108.600 314.000 C 109.683 315.100,110.660 316.000,110.770 316.000 C 110.880 316.000,110.083 315.100,109.000 314.000 C 107.917 312.900,106.940 312.000,106.830 312.000 C 106.720 312.000,107.517 312.900,108.600 314.000 M182.500 349.476 C 182.885 349.576,183.515 349.576,183.900 349.476 C 184.285 349.375,183.970 349.293,183.200 349.293 C 182.430 349.293,182.115 349.375,182.500 349.476 M198.900 350.687 C 199.505 350.778,200.495 350.778,201.100 350.687 C 201.705 350.595,201.210 350.520,200.000 350.520 C 198.790 350.520,198.295 350.595,198.900 350.687 " stroke="none" fill="#747474" fill-rule="evenodd"></path><path id="path3" d="M193.600 22.000 C 192.776 22.264,192.741 22.326,193.400 22.354 C 193.840 22.373,194.470 22.213,194.800 22.000 C 195.501 21.547,195.014 21.547,193.600 22.000 M202.848 21.781 C 202.968 21.901,203.922 22.159,204.968 22.354 C 206.014 22.550,206.719 22.573,206.535 22.406 C 206.156 22.062,202.511 21.444,202.848 21.781 M234.800 37.792 C 234.800 37.897,235.520 38.351,236.400 38.800 C 238.383 39.812,238.500 39.574,236.577 38.440 C 235.112 37.575,234.800 37.461,234.800 37.792 M157.062 41.647 C 156.216 42.093,155.609 42.542,155.712 42.645 C 155.902 42.836,158.800 41.255,158.800 40.960 C 158.800 40.734,158.771 40.745,157.062 41.647 M255.600 49.387 C 255.600 49.497,256.500 50.043,257.600 50.600 C 258.700 51.157,259.600 51.523,259.600 51.413 C 259.600 51.303,258.700 50.757,257.600 50.200 C 256.500 49.643,255.600 49.277,255.600 49.387 M266.400 55.397 C 266.400 55.668,269.649 57.284,269.830 57.103 C 269.914 57.019,269.176 56.559,268.191 56.081 C 267.206 55.602,266.400 55.294,266.400 55.397 M114.300 65.429 C 112.805 66.240,112.896 66.578,114.400 65.800 C 115.060 65.459,115.600 65.094,115.600 64.990 C 115.600 64.732,115.557 64.747,114.300 65.429 M98.900 74.046 C 97.095 75.202,97.263 75.468,99.100 74.363 C 100.960 73.245,101.018 73.198,100.567 73.207 C 100.365 73.210,99.615 73.588,98.900 74.046 M300.800 74.552 C 300.800 74.853,303.695 76.438,303.889 76.244 C 303.993 76.141,303.340 75.680,302.439 75.220 C 301.537 74.760,300.800 74.460,300.800 74.552 M323.600 87.379 C 323.600 87.489,324.140 87.859,324.800 88.200 C 325.460 88.541,326.000 88.731,326.000 88.621 C 326.000 88.511,325.460 88.141,324.800 87.800 C 324.140 87.459,323.600 87.269,323.600 87.379 M194.923 87.899 C 197.520 87.969,201.660 87.968,204.123 87.898 C 206.585 87.828,204.460 87.771,199.400 87.772 C 194.340 87.772,192.325 87.829,194.923 87.899 M212.500 88.276 C 212.885 88.376,213.515 88.376,213.900 88.276 C 214.285 88.175,213.970 88.093,213.200 88.093 C 212.430 88.093,212.115 88.175,212.500 88.276 M179.325 88.765 C 178.183 88.904,177.148 89.118,177.025 89.242 C 176.675 89.592,181.327 89.145,182.000 88.764 C 182.706 88.365,182.617 88.365,179.325 88.765 M217.800 88.800 C 218.240 88.989,218.960 89.138,219.400 89.132 C 220.043 89.123,220.004 89.057,219.200 88.800 C 217.832 88.362,216.781 88.362,217.800 88.800 M173.096 89.984 C 172.268 90.144,171.488 90.378,171.363 90.504 C 170.988 90.878,174.566 90.330,174.980 89.949 C 175.409 89.555,175.297 89.557,173.096 89.984 M230.200 91.200 C 230.336 91.420,230.842 91.587,231.324 91.572 C 232.169 91.545,232.171 91.531,231.400 91.200 C 230.299 90.727,229.908 90.727,230.200 91.200 M65.900 92.629 C 64.405 93.440,64.496 93.778,66.000 93.000 C 66.660 92.659,67.200 92.294,67.200 92.190 C 67.200 91.932,67.157 91.947,65.900 92.629 M163.800 92.400 L 163.000 92.744 163.800 92.766 C 164.240 92.778,164.870 92.613,165.200 92.400 C 165.995 91.886,164.996 91.886,163.800 92.400 M332.000 92.179 C 332.000 92.289,332.540 92.659,333.200 93.000 C 333.860 93.341,334.400 93.531,334.400 93.421 C 334.400 93.311,333.860 92.941,333.200 92.600 C 332.540 92.259,332.000 92.069,332.000 92.179 M334.833 93.731 C 335.513 94.263,338.000 95.625,338.000 95.465 C 338.000 95.206,335.405 93.600,334.986 93.600 C 334.810 93.600,334.742 93.659,334.833 93.731 M56.661 97.846 C 55.594 98.401,54.802 98.935,54.900 99.033 C 55.087 99.221,58.800 97.252,58.800 96.966 C 58.800 96.732,58.810 96.728,56.661 97.846 M251.600 98.286 C 251.930 98.408,252.560 98.674,253.000 98.876 C 253.787 99.238,253.788 99.234,253.024 98.622 C 252.596 98.280,251.966 98.014,251.624 98.032 C 251.085 98.059,251.082 98.093,251.600 98.286 M342.800 98.197 C 342.800 98.468,346.049 100.084,346.230 99.903 C 346.314 99.819,345.576 99.359,344.591 98.881 C 343.606 98.402,342.800 98.094,342.800 98.197 M141.376 100.980 C 140.627 101.540,140.632 101.552,141.506 101.332 C 142.005 101.206,142.510 100.945,142.630 100.752 C 142.968 100.204,142.236 100.338,141.376 100.980 M267.944 106.777 C 268.464 107.230,269.094 107.597,269.344 107.594 C 269.822 107.587,269.157 107.058,267.800 106.364 C 267.171 106.042,267.202 106.131,267.944 106.777 M120.764 113.706 C 118.654 115.298,115.954 117.477,114.764 118.548 C 113.574 119.620,113.320 119.927,114.200 119.230 C 115.080 118.534,117.825 116.420,120.300 114.533 C 124.230 111.537,125.124 110.779,124.700 110.806 C 124.645 110.810,122.874 112.115,120.764 113.706 M31.600 112.036 C 30.936 112.579,30.869 112.715,31.400 112.440 C 32.705 111.766,33.428 111.212,33.000 111.215 C 32.780 111.217,32.150 111.586,31.600 112.036 M275.200 111.311 C 275.200 111.387,275.785 111.878,276.500 112.401 C 277.304 112.990,277.584 113.087,277.233 112.655 C 276.700 111.999,275.200 111.007,275.200 111.311 M368.600 112.657 C 370.637 114.464,371.387 114.991,370.602 114.063 C 370.166 113.548,369.447 112.941,369.004 112.714 C 368.562 112.487,368.380 112.462,368.600 112.657 M279.600 114.506 C 279.600 114.594,280.365 115.274,281.300 116.017 C 282.235 116.760,282.746 117.052,282.436 116.665 C 281.851 115.937,279.600 114.223,279.600 114.506 M25.206 117.394 C 24.463 118.161,23.932 118.850,24.027 118.925 C 24.122 119.000,24.806 118.373,25.546 117.531 C 27.229 115.618,27.012 115.531,25.206 117.394 M287.400 121.200 C 288.259 122.080,289.052 122.800,289.162 122.800 C 289.272 122.800,288.659 122.080,287.800 121.200 C 286.941 120.320,286.148 119.600,286.038 119.600 C 285.928 119.600,286.541 120.320,287.400 121.200 M22.279 121.900 C 21.969 122.453,21.532 124.602,21.780 124.354 C 22.077 124.056,22.805 121.600,22.596 121.600 C 22.514 121.600,22.371 121.735,22.279 121.900 M289.600 122.925 C 289.600 122.994,290.185 123.579,290.900 124.225 L 292.200 125.400 291.025 124.100 C 289.930 122.888,289.600 122.616,289.600 122.925 M106.589 126.100 L 103.800 129.000 106.700 126.211 C 109.394 123.620,109.783 123.200,109.489 123.200 C 109.428 123.200,108.123 124.505,106.589 126.100 M294.800 128.200 C 295.995 129.410,297.063 130.400,297.173 130.400 C 297.283 130.400,296.395 129.410,295.200 128.200 C 294.005 126.990,292.937 126.000,292.827 126.000 C 292.717 126.000,293.605 126.990,294.800 128.200 M378.134 129.600 C 378.134 131.250,378.205 131.925,378.291 131.100 C 378.378 130.275,378.378 128.925,378.291 128.100 C 378.205 127.275,378.134 127.950,378.134 129.600 M20.903 219.800 C 20.853 269.960,20.944 311.208,21.106 311.462 C 21.370 311.876,21.364 222.417,21.097 154.600 C 21.040 140.300,20.953 169.640,20.903 219.800 M99.968 133.300 C 98.784 134.675,98.132 135.548,98.520 135.241 C 99.334 134.594,102.562 130.800,102.297 130.800 C 102.200 130.800,101.151 131.925,99.968 133.300 M297.200 130.925 C 297.200 130.994,297.785 131.579,298.500 132.225 L 299.800 133.400 298.625 132.100 C 297.530 130.888,297.200 130.616,297.200 130.925 M91.923 143.500 C 91.218 144.321,90.690 145.200,90.901 145.200 C 90.983 145.200,91.449 144.660,91.937 144.000 C 92.901 142.696,92.892 142.372,91.923 143.500 M312.140 151.103 C 312.285 151.338,311.908 151.916,311.302 152.387 C 310.615 152.921,310.514 153.093,311.033 152.844 C 312.314 152.228,312.946 151.337,312.358 150.974 C 312.067 150.794,311.981 150.845,312.140 151.103 M198.500 153.091 C 199.325 153.178,200.675 153.178,201.500 153.091 C 202.325 153.005,201.650 152.934,200.000 152.934 C 198.350 152.934,197.675 153.005,198.500 153.091 M189.531 153.561 C 188.283 153.695,187.154 153.912,187.022 154.044 C 186.709 154.358,190.653 154.018,192.200 153.598 C 193.576 153.224,192.774 153.213,189.531 153.561 M207.000 153.623 C 207.880 153.805,209.140 153.942,209.800 153.927 C 210.700 153.907,210.550 153.820,209.200 153.580 C 206.786 153.150,204.894 153.187,207.000 153.623 M183.800 154.800 C 182.693 155.082,182.677 155.109,183.600 155.147 C 184.150 155.169,184.870 155.013,185.200 154.800 C 185.881 154.360,185.529 154.360,183.800 154.800 M219.200 156.200 C 221.026 156.903,221.745 156.893,220.200 156.186 C 219.540 155.883,218.730 155.642,218.400 155.648 C 218.070 155.655,218.430 155.903,219.200 156.200 M175.700 157.212 C 174.315 157.769,174.634 158.014,176.100 157.520 C 176.815 157.279,177.475 157.018,177.567 156.941 C 177.892 156.666,176.586 156.856,175.700 157.212 M302.100 157.646 C 300.295 158.802,300.463 159.068,302.300 157.963 C 304.160 156.845,304.218 156.798,303.767 156.807 C 303.565 156.810,302.815 157.188,302.100 157.646 M170.200 159.827 C 169.540 160.170,168.820 160.635,168.600 160.861 C 168.380 161.087,168.965 160.877,169.900 160.395 C 170.835 159.913,171.600 159.447,171.600 159.360 C 171.600 159.120,171.500 159.153,170.200 159.827 M236.544 164.309 C 236.860 164.821,239.200 166.553,239.200 166.275 C 239.200 166.176,238.539 165.591,237.732 164.975 C 236.924 164.359,236.389 164.059,236.544 164.309 M154.579 170.912 L 151.400 174.200 154.589 171.200 C 156.342 169.550,157.857 168.155,157.955 168.100 C 158.053 168.045,158.049 167.915,157.945 167.812 C 157.842 167.709,156.327 169.104,154.579 170.912 M242.487 169.005 C 243.304 169.860,244.038 170.479,244.117 170.380 C 244.197 170.281,243.528 169.581,242.631 168.825 L 241.000 167.450 242.487 169.005 M248.600 175.200 C 249.459 176.080,250.252 176.800,250.362 176.800 C 250.472 176.800,249.859 176.080,249.000 175.200 C 248.141 174.320,247.348 173.600,247.238 173.600 C 247.128 173.600,247.741 174.320,248.600 175.200 M150.586 174.987 C 150.374 175.289,149.418 176.451,148.463 177.568 C 147.507 178.686,146.805 179.600,146.903 179.600 C 147.211 179.600,151.299 174.765,151.132 174.598 C 151.044 174.510,150.798 174.685,150.586 174.987 M251.599 178.700 C 252.122 179.415,252.613 180.000,252.689 180.000 C 252.993 180.000,252.001 178.500,251.345 177.967 C 250.913 177.616,251.010 177.896,251.599 178.700 M264.100 179.426 C 263.165 179.987,262.400 180.540,262.400 180.655 C 262.400 180.871,265.099 179.338,265.780 178.736 C 266.467 178.128,265.827 178.391,264.100 179.426 M254.469 182.484 C 255.981 184.625,255.973 184.621,257.024 183.774 C 257.787 183.159,257.786 183.155,257.000 183.563 C 256.320 183.916,255.970 183.725,254.669 182.289 L 253.139 180.600 254.469 182.484 M73.029 183.029 C 72.881 183.615,72.851 184.184,72.961 184.294 C 73.071 184.404,73.281 184.015,73.429 183.429 C 73.576 182.842,73.606 182.273,73.496 182.163 C 73.386 182.053,73.176 182.442,73.029 183.029 M265.200 200.000 L 265.200 209.200 264.300 209.246 C 263.559 209.285,263.531 209.327,264.142 209.484 C 264.551 209.589,265.074 209.486,265.305 209.255 C 265.797 208.763,265.998 190.800,265.511 190.800 C 265.340 190.800,265.200 194.940,265.200 200.000 M268.100 191.087 C 268.705 191.178,269.695 191.178,270.300 191.087 C 270.905 190.995,270.410 190.920,269.200 190.920 C 267.990 190.920,267.495 190.995,268.100 191.087 M275.700 191.087 C 276.305 191.178,277.295 191.178,277.900 191.087 C 278.505 190.995,278.010 190.920,276.800 190.920 C 275.590 190.920,275.095 190.995,275.700 191.087 M282.892 191.086 L 283.985 191.252 284.100 200.126 L 284.216 209.000 284.308 199.900 L 284.400 190.800 283.100 190.860 C 281.901 190.915,281.885 190.933,282.892 191.086 M331.372 200.000 C 331.372 205.170,331.429 207.285,331.499 204.700 C 331.568 202.115,331.568 197.885,331.499 195.300 C 331.429 192.715,331.372 194.830,331.372 200.000 M335.700 191.087 C 336.305 191.178,337.295 191.178,337.900 191.087 C 338.505 190.995,338.010 190.920,336.800 190.920 C 335.590 190.920,335.095 190.995,335.700 191.087 M343.300 191.087 C 343.905 191.178,344.895 191.178,345.500 191.087 C 346.105 190.995,345.610 190.920,344.400 190.920 C 343.190 190.920,342.695 190.995,343.300 191.087 M70.640 192.840 C 70.493 193.757,70.452 194.585,70.547 194.680 C 70.642 194.776,70.846 194.110,71.000 193.200 C 71.154 192.290,71.196 191.462,71.093 191.360 C 70.990 191.257,70.787 191.923,70.640 192.840 M69.667 198.200 C 69.624 199.080,69.489 200.250,69.367 200.800 C 69.177 201.657,69.209 201.699,69.594 201.097 C 69.841 200.710,69.976 199.540,69.894 198.497 C 69.748 196.653,69.742 196.645,69.667 198.200 M250.521 209.498 C 252.677 209.571,256.097 209.570,258.121 209.498 C 260.144 209.425,258.380 209.366,254.200 209.367 C 250.020 209.367,248.364 209.426,250.521 209.498 M294.270 209.495 L 302.340 209.616 302.550 210.708 C 302.665 211.309,302.735 215.441,302.705 219.890 L 302.651 227.981 296.225 228.101 L 289.800 228.221 296.507 228.311 L 303.214 228.400 303.107 218.900 L 303.000 209.400 294.600 209.387 L 286.200 209.374 294.270 209.495 M312.572 218.800 C 312.572 223.970,312.629 226.085,312.699 223.500 C 312.768 220.915,312.768 216.685,312.699 214.100 C 312.629 211.515,312.572 213.630,312.572 218.800 M68.573 219.600 C 68.573 224.990,68.630 227.195,68.699 224.500 C 68.768 221.805,68.768 217.395,68.699 214.700 C 68.630 212.005,68.573 214.210,68.573 219.600 M368.520 213.200 C 368.520 214.410,368.595 214.905,368.687 214.300 C 368.778 213.695,368.778 212.705,368.687 212.100 C 368.595 211.495,368.520 211.990,368.520 213.200 M246.531 217.000 C 246.533 218.540,246.605 219.121,246.692 218.291 C 246.779 217.461,246.777 216.201,246.689 215.491 C 246.600 214.781,246.529 215.460,246.531 217.000 M368.514 220.600 C 368.517 221.700,368.595 222.103,368.687 221.495 C 368.779 220.886,368.777 219.986,368.682 219.495 C 368.587 219.003,368.511 219.500,368.514 220.600 M246.528 224.400 C 246.528 225.830,246.601 226.415,246.689 225.700 C 246.778 224.985,246.778 223.815,246.689 223.100 C 246.601 222.385,246.528 222.970,246.528 224.400 M134.047 225.433 C 134.073 226.515,134.240 227.940,134.417 228.600 C 134.614 229.332,134.653 228.631,134.518 226.800 C 134.263 223.355,133.977 222.525,134.047 225.433 M249.500 228.297 C 251.095 228.373,253.705 228.373,255.300 228.297 C 256.895 228.221,255.590 228.159,252.400 228.159 C 249.210 228.159,247.905 228.221,249.500 228.297 M265.337 237.600 L 265.400 247.000 274.900 247.107 L 284.400 247.214 284.308 237.707 L 284.215 228.200 284.100 237.500 L 283.985 246.800 275.024 246.800 L 266.064 246.800 265.836 245.700 C 265.710 245.095,265.673 241.495,265.753 237.700 C 265.833 233.904,265.758 230.214,265.586 229.500 C 265.414 228.781,265.302 232.399,265.337 237.600 M331.389 237.800 L 331.400 247.000 340.700 247.011 L 350.000 247.023 340.808 246.904 L 331.615 246.785 331.496 237.693 L 331.378 228.600 331.389 237.800 M135.444 233.800 C 135.773 235.271,136.002 235.590,135.994 234.567 C 135.991 234.145,135.805 233.530,135.582 233.200 C 135.285 232.762,135.248 232.924,135.444 233.800 M69.444 237.400 C 69.773 238.871,70.002 239.190,69.994 238.167 C 69.991 237.745,69.805 237.130,69.582 236.800 C 69.285 236.362,69.248 236.524,69.444 237.400 M136.448 237.600 C 136.442 237.930,136.683 238.740,136.986 239.400 C 137.693 240.945,137.703 240.226,137.000 238.400 C 136.703 237.630,136.455 237.270,136.448 237.600 M252.263 258.100 C 251.002 259.858,250.960 259.972,252.006 258.800 C 253.183 257.482,254.185 256.000,253.899 256.000 C 253.829 256.000,253.092 256.945,252.263 258.100 M247.587 263.700 C 245.883 265.640,245.577 266.080,246.844 264.769 C 249.938 261.567,250.971 260.400,250.712 260.400 C 250.587 260.400,249.181 261.885,247.587 263.700 M150.000 262.110 C 150.000 262.171,151.395 263.566,153.100 265.210 L 156.200 268.200 153.210 265.100 C 150.433 262.221,150.000 261.817,150.000 262.110 M242.400 268.600 C 241.428 269.590,240.723 270.400,240.833 270.400 C 240.943 270.400,241.828 269.590,242.800 268.600 C 243.772 267.610,244.477 266.800,244.367 266.800 C 244.257 266.800,243.372 267.610,242.400 268.600 M158.400 270.137 C 158.400 270.307,161.484 272.608,162.700 273.344 C 164.117 274.203,162.897 273.103,160.800 271.632 C 159.480 270.706,158.400 270.034,158.400 270.137 M239.000 271.450 C 238.281 272.062,238.134 272.305,238.633 272.057 C 239.366 271.693,240.741 270.376,240.349 270.414 C 240.267 270.422,239.660 270.888,239.000 271.450 M172.000 278.631 C 172.000 278.901,174.078 279.656,174.276 279.457 C 174.367 279.367,173.892 279.101,173.220 278.867 C 172.549 278.633,172.000 278.527,172.000 278.631 M223.199 280.249 L 222.200 280.833 223.200 280.567 C 224.314 280.270,224.614 280.081,224.366 279.833 C 224.274 279.741,223.749 279.928,223.199 280.249 M216.000 282.400 C 215.176 282.664,215.141 282.726,215.800 282.754 C 216.240 282.773,216.870 282.613,217.200 282.400 C 217.901 281.947,217.414 281.947,216.000 282.400 M210.600 283.600 L 209.000 283.886 210.400 283.937 C 211.170 283.965,212.070 283.813,212.400 283.600 C 213.055 283.177,212.962 283.177,210.600 283.600 M313.357 283.530 C 313.511 283.779,313.439 284.392,313.196 284.892 C 312.774 285.762,312.782 285.768,313.378 285.024 C 314.121 284.097,314.155 283.743,313.538 283.362 C 313.255 283.187,313.185 283.252,313.357 283.530 M189.966 284.126 C 190.147 284.307,190.993 284.393,191.847 284.319 L 193.400 284.183 191.519 283.990 C 190.484 283.884,189.785 283.945,189.966 284.126 M85.615 284.200 C 85.617 284.420,85.986 285.050,86.436 285.600 C 86.979 286.264,87.115 286.331,86.840 285.800 C 86.166 284.495,85.612 283.772,85.615 284.200 M90.575 292.132 C 91.191 292.939,91.776 293.600,91.875 293.600 C 92.153 293.600,90.421 291.260,89.909 290.944 C 89.659 290.789,89.959 291.324,90.575 292.132 M92.571 295.000 C 92.948 295.660,93.802 296.830,94.470 297.600 C 95.449 298.729,95.391 298.574,94.173 296.800 C 92.371 294.177,91.621 293.334,92.571 295.000 M95.600 299.325 C 95.600 299.394,96.185 299.979,96.900 300.625 L 98.200 301.800 97.025 300.500 C 95.930 299.288,95.600 299.016,95.600 299.325 M298.232 305.113 L 297.464 306.200 298.532 305.230 C 299.654 304.211,299.793 303.992,299.300 304.013 C 299.135 304.019,298.654 304.514,298.232 305.113 M293.597 310.430 C 289.541 314.764,289.272 315.100,291.540 313.000 C 293.238 311.428,297.416 306.800,297.137 306.800 C 297.059 306.800,295.466 308.434,293.597 310.430 M106.600 311.600 C 108.792 313.800,110.675 315.600,110.785 315.600 C 110.895 315.600,109.192 313.800,107.000 311.600 C 104.808 309.400,102.925 307.600,102.815 307.600 C 102.705 307.600,104.408 309.400,106.600 311.600 M378.000 311.303 C 378.000 311.359,377.823 312.022,377.607 312.776 C 377.391 313.529,377.368 313.978,377.555 313.773 C 377.964 313.326,378.503 311.200,378.208 311.200 C 378.093 311.200,378.000 311.246,378.000 311.303 M287.385 316.500 L 285.400 318.600 287.500 316.615 C 288.655 315.523,289.600 314.578,289.600 314.515 C 289.600 314.217,289.229 314.549,287.385 316.500 M376.465 315.417 C 375.795 316.888,375.923 317.202,376.647 315.865 C 376.986 315.240,377.188 314.654,377.096 314.563 C 377.005 314.471,376.721 314.856,376.465 315.417 M112.400 316.925 C 112.400 316.994,112.985 317.579,113.700 318.225 L 115.000 319.400 113.825 318.100 C 112.730 316.888,112.400 316.616,112.400 316.925 M284.043 319.223 C 283.517 319.661,283.171 320.105,283.275 320.208 C 283.379 320.312,283.886 319.948,284.401 319.398 C 285.524 318.204,285.362 318.125,284.043 319.223 M27.000 321.600 C 28.083 322.700,29.060 323.600,29.170 323.600 C 29.280 323.600,28.483 322.700,27.400 321.600 C 26.317 320.500,25.340 319.600,25.230 319.600 C 25.120 319.600,25.917 320.500,27.000 321.600 M281.185 321.629 L 279.800 322.858 281.300 321.781 C 282.626 320.830,283.057 320.400,282.685 320.400 C 282.622 320.400,281.947 320.953,281.185 321.629 M370.600 323.060 C 369.395 324.136,369.305 324.285,370.236 323.663 C 371.341 322.924,372.732 321.576,372.349 321.615 C 372.267 321.623,371.480 322.273,370.600 323.060 M277.530 324.332 C 274.948 326.359,274.650 326.766,276.823 325.299 C 278.356 324.263,280.061 322.721,279.549 322.832 C 279.467 322.850,278.559 323.525,277.530 324.332 M271.281 328.572 C 269.525 329.814,269.097 330.345,270.600 329.418 C 272.678 328.135,273.391 327.599,272.989 327.620 C 272.775 327.630,272.007 328.059,271.281 328.572 M360.300 329.029 C 358.805 329.840,358.896 330.178,360.400 329.400 C 361.060 329.059,361.600 328.694,361.600 328.590 C 361.600 328.332,361.557 328.347,360.300 329.029 M38.400 328.984 C 38.400 329.094,39.120 329.551,40.000 330.000 C 40.880 330.449,41.600 330.726,41.600 330.616 C 41.600 330.506,40.880 330.049,40.000 329.600 C 39.120 329.151,38.400 328.874,38.400 328.984 M142.800 337.431 C 142.800 337.701,144.878 338.456,145.076 338.257 C 145.167 338.167,144.692 337.901,144.020 337.667 C 143.349 337.433,142.800 337.327,142.800 337.431 M57.600 339.784 C 57.600 339.894,58.320 340.351,59.200 340.800 C 60.080 341.249,60.800 341.526,60.800 341.416 C 60.800 341.306,60.080 340.849,59.200 340.400 C 58.320 339.951,57.600 339.674,57.600 339.784 M246.500 341.212 C 245.161 341.751,245.411 342.024,246.800 341.540 C 247.460 341.310,248.000 341.049,248.000 340.961 C 248.000 340.724,247.513 340.805,246.500 341.212 M155.200 342.600 C 157.026 343.303,157.745 343.293,156.200 342.586 C 155.540 342.283,154.730 342.042,154.400 342.048 C 154.070 342.055,154.430 342.303,155.200 342.600 M235.656 344.859 C 234.917 345.072,234.387 345.320,234.479 345.412 C 234.681 345.614,237.600 344.837,237.600 344.581 C 237.600 344.346,237.282 344.391,235.656 344.859 M166.400 345.943 C 168.055 346.482,170.266 346.824,169.600 346.438 C 169.270 346.247,168.190 345.984,167.200 345.853 C 166.020 345.698,165.744 345.729,166.400 345.943 M231.400 346.000 C 230.311 346.277,230.293 346.307,231.200 346.325 C 231.750 346.335,232.560 346.189,233.000 346.000 C 233.986 345.576,233.066 345.576,231.400 346.000 M172.000 347.182 C 172.330 347.405,172.945 347.591,173.367 347.594 C 174.390 347.602,174.071 347.373,172.600 347.044 C 171.724 346.848,171.562 346.885,172.000 347.182 M225.645 347.232 C 224.679 347.422,223.786 347.681,223.660 347.807 C 223.326 348.141,226.890 347.554,227.600 347.159 C 228.313 346.761,227.980 346.774,225.645 347.232 M177.600 348.387 C 178.591 348.717,181.487 348.935,181.167 348.654 C 181.075 348.574,180.010 348.406,178.800 348.281 C 177.380 348.134,176.954 348.171,177.600 348.387 M218.731 348.361 C 217.483 348.495,216.358 348.708,216.232 348.835 C 215.903 349.163,220.439 348.756,221.400 348.371 C 222.294 348.013,221.987 348.012,218.731 348.361 M187.200 349.631 C 187.750 349.790,190.000 349.917,192.200 349.914 C 197.201 349.906,196.402 349.697,190.600 349.495 C 188.180 349.411,186.650 349.473,187.200 349.631 M208.400 349.600 L 204.200 349.843 208.200 349.882 C 210.400 349.903,212.650 349.776,213.200 349.600 C 214.331 349.238,214.649 349.238,208.400 349.600 M199.800 350.000 L 197.400 350.266 199.800 350.305 C 201.120 350.326,202.560 350.189,203.000 350.000 L 203.800 349.656 203.000 349.695 C 202.560 349.717,201.120 349.854,199.800 350.000 M282.700 372.677 C 281.656 373.258,280.863 373.797,280.940 373.873 C 281.100 374.034,284.800 372.014,284.800 371.766 C 284.800 371.515,284.743 371.540,282.700 372.677 M245.500 393.429 C 244.005 394.240,244.096 394.578,245.600 393.800 C 246.260 393.459,246.800 393.094,246.800 392.990 C 246.800 392.732,246.757 392.747,245.500 393.429 M241.100 395.829 C 239.605 396.640,239.696 396.978,241.200 396.200 C 241.860 395.859,242.400 395.494,242.400 395.390 C 242.400 395.132,242.357 395.147,241.100 395.829 M211.100 412.629 C 209.605 413.440,209.696 413.778,211.200 413.000 C 211.860 412.659,212.400 412.294,212.400 412.190 C 212.400 411.932,212.357 411.947,211.100 412.629 M199.905 416.283 C 200.402 416.379,201.122 416.375,201.505 416.275 C 201.887 416.175,201.480 416.096,200.600 416.101 C 199.720 416.105,199.407 416.187,199.905 416.283 " stroke="none" fill="#9a9a9a" fill-rule="evenodd"></path><path id="path4" d="M270.323 190.699 C 273.031 190.768,277.351 190.768,279.923 190.699 C 282.495 190.629,280.280 190.572,275.000 190.573 C 269.720 190.573,267.615 190.630,270.323 190.699 M336.100 190.699 C 338.685 190.768,342.915 190.768,345.500 190.699 C 348.085 190.629,345.970 190.572,340.800 190.572 C 335.630 190.572,333.515 190.629,336.100 190.699 M246.493 213.200 C 246.493 213.970,246.575 214.285,246.676 213.900 C 246.776 213.515,246.776 212.885,246.676 212.500 C 246.575 212.115,246.493 212.430,246.493 213.200 M134.142 219.000 C 134.141 220.980,134.208 221.840,134.292 220.912 C 134.376 219.984,134.377 218.364,134.295 217.312 C 134.212 216.260,134.143 217.020,134.142 219.000 M246.493 220.800 C 246.493 221.570,246.575 221.885,246.676 221.500 C 246.776 221.115,246.776 220.485,246.676 220.100 C 246.575 219.715,246.493 220.030,246.493 220.800 " stroke="none" fill="#7c7c7c" fill-rule="evenodd"></path></g></svg>