<?xml version="1.0" standalone="no"?>
<!DOCTYPE svg PUBLIC "-//W3C//DTD SVG 20010904//EN"
 "http://www.w3.org/TR/2001/REC-SVG-20010904/DTD/svg10.dtd">
<svg version="1.0" xmlns="http://www.w3.org/2000/svg"
 width="125.000000pt" height="125.000000pt" viewBox="0 0 125.000000 125.000000"
 preserveAspectRatio="xMidYMid meet">

<g transform="translate(0.000000,125.000000) scale(0.100000,-0.100000)"
fill="#444444" stroke="none">
<path d="M763 1128 c-12 -13 -53 -71 -92 -130 -73 -110 -95 -130 -169 -163
-24 -10 -65 -42 -90 -71 -44 -48 -59 -57 -207 -117 -88 -36 -161 -71 -163 -78
-1 -8 56 -56 128 -107 130 -93 130 -93 165 -81 32 12 37 11 59 -10 27 -26 80
-124 116 -213 25 -64 38 -70 93 -42 56 29 95 64 178 158 147 166 187 172 319
51 67 -62 96 -80 105 -65 4 6 -18 70 -48 143 -31 72 -83 210 -116 305 -133
378 -166 442 -228 442 -18 0 -38 -9 -50 -22z m86 -44 c23 -30 77 -163 160
-400 32 -93 73 -204 90 -247 17 -43 31 -80 31 -84 0 -3 -20 13 -44 35 -57 53
-111 70 -168 53 -35 -10 -67 -37 -168 -141 -69 -71 -140 -136 -158 -145 l-33
-16 -15 38 c-40 98 -87 185 -117 217 l-33 34 32 26 c81 64 187 239 284 468 85
201 97 215 139 162z m-215 -241 c-31 -72 -92 -184 -108 -201 -10 -10 -21 -6
-59 23 -26 20 -47 40 -47 45 0 20 74 82 123 104 29 13 65 37 81 55 17 17 31
31 33 31 1 0 -9 -26 -23 -57z m-144 -255 c0 -25 -156 -168 -184 -168 -13 0
-190 127 -194 139 -1 4 59 33 135 63 l137 56 53 -40 c29 -22 53 -45 53 -50z"/>
<path d="M805 1049 c-87 -369 -141 -556 -178 -610 -20 -30 -44 -49 -101 -84
-15 -9 -14 -15 10 -65 14 -30 30 -65 35 -78 l9 -24 38 30 c21 17 71 69 112
116 81 94 141 140 193 150 l34 6 -66 284 c-36 157 -69 288 -73 291 -4 4 -10
-3 -13 -16z"/>
</g>
</svg>
